<?xml version="1.0" encoding="utf-8"?>
<!-- Generated by IcoMoon.io -->
<!DOCTYPE svg PUBLIC "-//W3C//DTD SVG 1.1//EN" "http://www.w3.org/Graphics/SVG/1.1/DTD/svg11.dtd">
<svg version="1.1" xmlns="http://www.w3.org/2000/svg" xmlns:xlink="http://www.w3.org/1999/xlink" width="18" height="18" viewBox="0 0 18 18">
<path d="M17 9c0-4.418-3.582-8-8-8s-8 3.582-8 8c0 4.418 3.582 8 8 8s8-3.582 8-8zM3 9c0-3.309 2.691-6 6-6s6 2.691 6 6-2.691 6-6 6-6-2.691-6-6z" fill="#444444"></path>
<path d="M9.998 12.010v-3.633l1.293 1.317c0.392 0.388 1.025 0.388 1.417 0s0.391-1.016 0-1.403l-2.967-3c-0.188-0.186-0.442-0.291-0.709-0.291-0.011 0-0.023 0-0.034 0.001s-0.023-0.001-0.034-0.001c-0.266 0-0.521 0.105-0.709 0.291l-2.967 3c-0.391 0.388-0.391 1.016 0 1.403s1.025 0.388 1.417 0l1.294-1.317v3.633c0 0.547 0.443 0.99 0.99 0.99h0.018c0.547 0 0.99-0.443 0.99-0.99z" fill="#444444"></path>
</svg>
