<?xml version="1.0" encoding="utf-8"?>
<!-- Generator: Adobe Illustrator 19.1.0, SVG Export Plug-In . SVG Version: 6.00 Build 0)  -->
<!DOCTYPE svg PUBLIC "-//W3C//DTD SVG 1.1//EN" "http://www.w3.org/Graphics/SVG/1.1/DTD/svg11.dtd">
<svg version="1.1" id="Layer_1" xmlns="http://www.w3.org/2000/svg" xmlns:xlink="http://www.w3.org/1999/xlink" x="0px" y="0px"
	 width="16px" height="16px" viewBox="0 0 16 16" enable-background="new 0 0 16 16" xml:space="preserve">
<path d="M15.8,4.8c-0.2-1.3-0.8-2.2-2.2-2.4C11.4,2,8,2,8,2S4.6,2,2.4,2.4C1,2.6,0.3,3.5,0.2,4.8C0,6.1,0,8,0,8
	s0,1.9,0.2,3.2c0.2,1.3,0.8,2.2,2.2,2.4C4.6,14,8,14,8,14s3.4,0,5.6-0.4c1.4-0.3,2-1.1,2.2-2.4C16,9.9,16,8,16,8S16,6.1,15.8,4.8z
	 M6,11V5l5,3L6,11z"/>
</svg>
