<?xml version="1.0" encoding="UTF-8"?><!DOCTYPE svg PUBLIC "-//W3C//DTD SVG 1.1//EN" "http://www.w3.org/Graphics/SVG/1.1/DTD/svg11.dtd"><svg xmlns="http://www.w3.org/2000/svg"><symbol id="icon-github" viewBox="0 0 16 16"><path fill-rule="evenodd" clip-rule="evenodd" d="M8 .2c-4.4 0-8 3.6-8 8 0 3.5 2.3 6.5 5.5 7.6.4.1.5-.2.5-.4V14c-2.2.5-2.7-1-2.7-1-.4-.9-.9-1.2-.9-1.2-.7-.5.1-.5.1-.5.8.1 1.2.8 1.2.8.7 1.3 1.9.9 2.3.7.1-.5.3-.9.5-1.1-1.8-.2-3.6-.9-3.6-4 0-.9.3-1.6.8-2.1-.1-.2-.4-1 .1-2.1 0 0 .7-.2 2.2.8.6-.2 1.3-.3 2-.3s1.4.1 2 .3c1.5-1 2.2-.8 2.2-.8.4 1.1.2 1.9.1 2.1.5.6.8 1.3.8 2.1 0 3.1-1.9 3.7-3.7 3.9.3.4.6.9.6 1.6v2.2c0 .2.1.5.6.4 3.2-1.1 5.5-4.1 5.5-7.6-.1-4.4-3.7-8-8.1-8z"/></symbol><symbol id="icon-twitter" viewBox="0 0 16 16"><title>Twitter</title><path d="M16 3c-.6.3-1.2.4-1.9.5.7-.4 1.2-1 1.4-1.8-.6.4-1.3.6-2.1.8-.6-.6-1.5-1-2.4-1-1.7 0-3.2 1.5-3.2 3.3 0 .3 0 .5.1.7-2.7-.1-5.2-1.4-6.8-3.4-.3.5-.4 1-.4 1.7 0 1.1.6 2.1 1.5 2.7-.5 0-1-.2-1.5-.4C.7 7.7 1.8 9 3.3 9.3c-.3.1-.6.1-.9.1-.2 0-.4 0-.6-.1.4 1.3 1.6 2.3 3.1 2.3-1.1.9-2.5 1.4-4.1 1.4H0c1.5.9 3.2 1.5 5 1.5 6 0 9.3-5 9.3-9.3v-.4C15 4.3 15.6 3.7 16 3z"/></symbol><symbol id="icon-vimeo" viewBox="0 0 16 16"><path d="M16 4.3c-.1 1.6-1.2 3.7-3.3 6.4-2.2 2.8-4 4.2-5.5 4.2-.9 0-1.7-.9-2.4-2.6C4 9.9 3.4 5 2 5c-.1 0-.5.3-1.2.8l-.8-1c.8-.7 3.5-3.4 4.7-3.5 1.2-.1 2 .7 2.3 2.5.3 2 .8 6.1 1.8 6.1.9 0 2.5-3.4 2.6-4 .1-.9-.3-1.9-2.3-1.1.8-2.6 2.3-3.8 4.5-3.8 1.7.1 2.5 1.2 2.4 3.3z"/></symbol><symbol id="icon-youtube" viewBox="0 0 16 16"><path d="M15.8 4.8c-.2-1.3-.8-2.2-2.2-2.4C11.4 2 8 2 8 2s-3.4 0-5.6.4C1 2.6.3 3.5.2 4.8 0 6.1 0 8 0 8s0 1.9.2 3.2c.2 1.3.8 2.2 2.2 2.4C4.6 14 8 14 8 14s3.4 0 5.6-.4c1.4-.3 2-1.1 2.2-2.4C16 9.9 16 8 16 8s0-1.9-.2-3.2zM6 11V5l5 3-5 3z"/></symbol></svg>