<?xml version="1.0" encoding="UTF-8" standalone="no"?>
<svg viewBox="0 0 18 18" version="1.1" xmlns="http://www.w3.org/2000/svg" xmlns:xlink="http://www.w3.org/1999/xlink" xmlns:sketch="http://www.bohemiancoding.com/sketch/ns">
    <g id="Page-1" stroke="none" stroke-width="1" sketch:type="MSPage">
        <g id="sound" sketch:type="MSLayerGroup" transform="translate(0.000000, 2.000000)">
            <path d="M9.214,0 C9.103,0 8.989,0.032 8.88,0.101 L4.832,2.911 C4.749,2.969 4.65,3 4.549,3 L0.996,3 C0.446,3 1.33226763e-15,3.448 1.33226763e-15,4 L1.33226763e-15,10 C1.33226763e-15,10.552 0.446,11 0.996,11 L4.549,11 C4.651,11 4.749,11.031 4.832,11.089 L8.88,13.899 C8.989,13.968 9.103,14 9.214,14 C9.606,14 9.961,13.6 9.961,13.051 L9.961,0.95 C9.961,0.4 9.606,0.001 9.214,0.001 L9.214,0 Z M7.969,10.834 L5.582,9.177 C5.416,9.062 5.218,8.999 5.016,8.999 L2.491,8.999 C2.216,8.999 1.993,8.775 1.993,8.499 L1.993,5.499 C1.993,5.223 2.216,4.999 2.491,4.999 L5.016,4.999 C5.218,4.999 5.416,4.937 5.582,4.821 L7.969,3.164 L7.969,10.833 L7.969,10.834 Z" id="Shape" sketch:type="MSShapeGroup"></path>
            <path d="M14.934,6.799 C14.848,5.051 13.42,3.808 12.427,3.15 C11.957,2.838 11.333,3.028 11.102,3.558 L11.064,3.644 C10.876,4.075 11.019,4.583 11.4,4.838 C12.106,5.311 12.986,6.085 13.024,6.903 C13.056,7.579 12.471,8.371 11.361,9.173 C10.963,9.461 10.832,10.012 11.076,10.448 L11.118,10.523 C11.384,10.998 11.984,11.147 12.418,10.835 C14.158,9.584 15.004,8.229 14.934,6.798 L14.934,6.799 Z" id="Shape" sketch:type="MSShapeGroup"></path>
            <path d="M17.934,6.799 C17.848,5.051 16.42,3.808 15.427,3.15 C14.957,2.838 14.333,3.028 14.102,3.558 L14.064,3.644 C13.876,4.075 14.019,4.583 14.4,4.838 C15.106,5.311 15.986,6.085 16.024,6.903 C16.056,7.579 15.471,8.371 14.361,9.173 C13.963,9.461 13.832,10.012 14.076,10.448 L14.118,10.523 C14.384,10.998 14.984,11.147 15.418,10.835 C17.158,9.584 18.004,8.229 17.934,6.798 L17.934,6.799 Z" id="Shape-2" sketch:type="MSShapeGroup" transform="translate(15.945467, 6.999165) rotate(-180.000000) translate(-15.945467, -6.999165) "></path>
        </g>
    </g>
</svg>