<?xml version="1.0" encoding="utf-8"?>
<!-- Generator: Adobe Illustrator 19.1.0, SVG Export Plug-In . SVG Version: 6.00 Build 0)  -->
<!DOCTYPE svg PUBLIC "-//W3C//DTD SVG 1.1//EN" "http://www.w3.org/Graphics/SVG/1.1/DTD/svg11.dtd">
<svg version="1.1" id="Layer_1" xmlns="http://www.w3.org/2000/svg" xmlns:xlink="http://www.w3.org/1999/xlink" x="0px" y="0px"
	 width="16px" height="16px" viewBox="0 0 16 16" enable-background="new 0 0 16 16" xml:space="preserve">
<path d="M5,1H2C1.4,1,1,1.4,1,2v12c0,0.6,0.4,1,1,1h3c0.6,0,1-0.4,1-1V2C6,1.4,5.6,1,5,1z"/>
<path d="M14,1h-3c-0.6,0-1,0.4-1,1v12c0,0.6,0.4,1,1,1h3c0.6,0,1-0.4,1-1V2C15,1.4,14.6,1,14,1z"/>
</svg>
