<?xml version="1.0" encoding="UTF-8" standalone="no"?>
<svg width="18px" height="18px" viewBox="0 0 18 18" version="1.1" xmlns="http://www.w3.org/2000/svg" xmlns:xlink="http://www.w3.org/1999/xlink">
    <g>
        <path d="M10.7,8.4 L9.3,7 L3,13.3 L3,8.7 L1,8.7 L1,15.7 C1,16.3 1.4,16.7 2,16.7 L9,16.7 L9,14.7 L4.4,14.7 L10.7,8.4 L10.7,8.4 Z"></path>
        <path d="M16,16 L12,16 L12,14 L15,14 L15,3 L4,3 L4,6 L2,6 L2,2 C2,1.4 2.4,1 3,1 L16,1 C16.6,1 17,1.4 17,2 L17,15 C17,15.6 16.6,16 16,16 L16,16 Z"></path>
    </g>
</svg>