<?xml version="1.0" encoding="utf-8"?>
<!-- Generated by IcoMoon.io -->
<!DOCTYPE svg PUBLIC "-//W3C//DTD SVG 1.1//EN" "http://www.w3.org/Graphics/SVG/1.1/DTD/svg11.dtd">
<svg version="1.1" xmlns="http://www.w3.org/2000/svg" xmlns:xlink="http://www.w3.org/1999/xlink" width="18" height="18" viewBox="0 0 18 18">
<path d="M9.016 3c2.748 0 4.984 2.243 4.984 5s-2.236 5-4.97 5l-0.060-0.004c-0.055-0.004-0.11-0.007-0.165-0.010l-0.336-0.014-3.665 1.098 0.629-2.483-0.517-0.747c-0.58-0.839-0.886-1.822-0.886-2.842 0-2.757 2.236-5 4.984-5zM9.016 1c-3.857 0-6.984 3.134-6.984 7 0 1.479 0.46 2.848 1.241 3.978l-1.272 5.022 6.722-2.015c0.098 0.004 0.194 0.015 0.293 0.015 3.857 0 6.984-3.134 6.984-7s-3.127-7-6.984-7v0z"></path>
</svg>
