<?xml version="1.0" encoding="utf-8"?>
<!-- Generated by IcoMoon.io -->
<!DOCTYPE svg PUBLIC "-//W3C//DTD SVG 1.1//EN" "http://www.w3.org/Graphics/SVG/1.1/DTD/svg11.dtd">
<svg version="1.1" xmlns="http://www.w3.org/2000/svg" xmlns:xlink="http://www.w3.org/1999/xlink" width="18" height="18" viewBox="0 0 18 18">
<path d="M17.569 8.246l-10.569-6.246c-0.552 0-1 0.448-1 1v1.954l-5-2.954c-0.552 0-1 0.448-1 1v12c0 0.552 0.448 1 1 1l5-2.955v1.955c0 0.552 0.448 1 1 1l10.569-6.246c0.267-0.158 0.431-0.444 0.431-0.754s-0.164-0.597-0.431-0.754zM6 10.722l-4 2.364v-8.172l4 2.364v3.444zM8 13.086v-8.172l6.915 4.086-6.915 4.086z"></path>
</svg>
