<?xml version="1.0" encoding="utf-8"?>
<svg viewBox="0 0 16 16" version="1.1" xmlns="http://www.w3.org/2000/svg" xmlns:xlink="http://www.w3.org/1999/xlink" xmlns:sketch="http://www.bohemiancoding.com/sketch/ns">
<path d="M7.7,1.2l0.7,6.4l2.1-2.1c1.9,1.9,1.9,5.1,0,7C9.6,13.5,8.3,14,7,14c-1.3,0-2.6-0.5-3.5-1.5
	c-1.9-1.9-1.9-5.1,0-7c0.6-0.6,1.4-1.1,2.3-1.3L5.2,2.3C4,2.6,2.9,3.2,2,4.1c-2.7,2.7-2.7,7.1,0,9.9c1.3,1.3,3.1,2,4.9,2
	c1.9,0,3.6-0.7,4.9-2c2.7-2.7,2.7-7.1,0-9.9l2.2-2.2L7.7,1.2z"/>
</svg>
