<?xml version="1.0" encoding="UTF-8" standalone="no"?>
<svg width="18px" height="18px" viewBox="0 0 18 18" version="1.1" xmlns="http://www.w3.org/2000/svg" xmlns:xlink="http://www.w3.org/1999/xlink">
    <g transform="translate(0.000000, 2.000000)">
        <path d="M7.69999981,6.30000001 C7.00064659,5.62264405 6.3,6.3 6.3,6.3 L2,10.6 L2,6 L0,6 L0,13 C0,13.6 0.4,14 1,14 L8,14 L8,12 L3.4,12 L7.7,7.7 C7.7,7.7 8.39935303,6.97735597 7.69999981,6.30000001 Z"></path>
        <path d="M11,14 L11,12 L16,12 L16,2 L2,2 L2,3 L0,3 L0,1 C0,0.4 0.4,0 1,0 L17,0 C17.6,0 18,0.4 18,1 L18,13 C18,13.6 17.6,14 17,14 L11,14 Z"></path>
    </g>
</svg>
