<?xml version="1.0" encoding="utf-8"?>
<!-- Generated by IcoMoon.io -->
<!DOCTYPE svg PUBLIC "-//W3C//DTD SVG 1.1//EN" "http://www.w3.org/Graphics/SVG/1.1/DTD/svg11.dtd">
<svg version="1.1" xmlns="http://www.w3.org/2000/svg" xmlns:xlink="http://www.w3.org/1999/xlink" width="18" height="18" viewBox="0 0 18 18">
<path d="M8.013 14.006h-0.822c-2.372-0.388-4.187-2.453-4.187-4.934 0-0.831 0.213-1.609 0.574-2.299l0.613 0.85c0.446 0.618 1.409 0.446 1.614-0.289l1.162-4.179c0.162-0.58-0.275-1.155-0.877-1.154l-4.174 0.006c-0.741 0.001-1.17 0.841-0.736 1.443l1.128 1.564c-0.817 1.145-1.302 2.544-1.302 4.059 0 3.499 2.566 6.399 5.918 6.917 0.091 0.014 0.18 0.010 0.267-0.001v0.012h0.822c0.545 0 0.987-0.442 0.987-0.987v-0.020c0-0.545-0.442-0.987-0.987-0.987z"></path>
<path d="M16.82 14.551l-1.129-1.564c0.818-1.145 1.302-2.544 1.302-4.059 0-3.499-2.566-6.399-5.918-6.918-0.091-0.014-0.18-0.010-0.267 0.001v-0.013h-0.822c-0.545 0-0.986 0.442-0.986 0.987v0.020c0 0.546 0.442 0.988 0.986 0.988h0.822c2.372 0.388 4.187 2.453 4.187 4.934 0 0.831-0.213 1.609-0.573 2.299l-0.614-0.85c-0.446-0.618-1.409-0.446-1.613 0.289l-1.163 4.179c-0.161 0.581 0.275 1.155 0.878 1.154l4.174-0.006c0.742-0.001 1.17-0.842 0.736-1.443z"></path>
</svg>
