<?xml version="1.0" encoding="UTF-8" standalone="no"?>
<svg viewBox="0 0 18 18" version="1.1" xmlns="http://www.w3.org/2000/svg" xmlns:xlink="http://www.w3.org/1999/xlink" xmlns:sketch="http://www.bohemiancoding.com/sketch/ns">
    <defs></defs>
    <g id="Page-1" stroke="none" stroke-width="1">
        <g id="collapse" sketch:type="MSLayerGroup" transform="translate(-1.000000, -1.000000)">
            <path d="M15.00325,9.01 L15.00325,5.377 L16.29625,6.694 C16.68825,7.082 17.32125,7.082 17.71325,6.694 C18.10525,6.306 18.10425,5.678 17.71325,5.291 L14.74625,2.291 C14.55825,2.105 14.30425,2 14.03725,2 C14.02625,2 14.01425,2 14.00325,2.001 C13.99225,2.002 13.98025,2 13.96925,2 C13.70325,2 13.44825,2.105 13.26025,2.291 L10.29325,5.291 C9.90225,5.679 9.90225,6.307 10.29325,6.694 C10.68425,7.081 11.31825,7.082 11.71025,6.694 L13.00425,5.377 L13.00425,9.01 C13.00425,9.557 13.44725,10 13.99425,10 L14.01225,10 C14.55925,10 15.00225,9.557 15.00225,9.01 L15.00325,9.01 Z" id="Shape" sketch:type="MSShapeGroup" transform="translate(14.003438, 6.000000) rotate(-135.000000) translate(-14.003438, -6.000000) "></path>
            <path d="M7.00668756,13.377 L8.29968756,14.694 C8.69168756,15.082 9.32468756,15.082 9.71668756,14.694 C10.1086876,14.306 10.1076876,13.678 9.71668756,13.291 L6.74968756,10.291 C6.56168756,10.105 6.30768756,10 6.04068756,10 C6.02968756,10 6.01768756,10 6.00668756,10.001 C5.99568756,10.002 5.98368756,10 5.97268756,10 C5.70668756,10 5.45168756,10.105 5.26368756,10.291 L2.29668756,13.291 C1.90568756,13.679 1.90568756,14.307 2.29668756,14.694 C2.68768756,15.081 3.32168756,15.082 3.71368756,14.694 L5.00768756,13.377 L5.00768756,17.01 C5.00768756,17.557 5.45068756,18 5.99768756,18 C6.56268756,18 7.00568756,17.557 7.00568756,17.01 L7.00668756,13.377 Z" id="Shape-2" sketch:type="MSShapeGroup" transform="translate(6.006875, 14.000000) rotate(45.000000) translate(-6.006875, -14.000000) "></path>
        </g>
    </g>
</svg>