<?xml version="1.0" encoding="UTF-8" standalone="no"?>
<svg width="18px" height="18px" viewBox="0 0 18 18" version="1.1" xmlns="http://www.w3.org/2000/svg" xmlns:xlink="http://www.w3.org/1999/xlink" xmlns:sketch="http://www.bohemiancoding.com/sketch/ns">
    <!-- Generator: Sketch 3.2.2 (9983) - http://www.bohemiancoding.com/sketch -->
    <title>icon-captions-on</title>
    <desc>Created with Sketch.</desc>
    <defs></defs>
    <g id="Page-1" stroke="none" stroke-width="1" sketch:type="MSPage">
        <path d="M1,2 C0.448,2 0,2.448 0,3 L0,15 C0,15.552 0.448,16 1,16 L17,16 C17.552,16 18,15.552 18,15 L18,3 C18,2.448 17.552,2 17,2 L1,2 Z M2,14 L2,4 L16,4 L16,14 L2,14 L2,14 Z" id="Shape" sketch:type="MSShapeGroup"></path>
        <rect id="Rectangle-1" sketch:type="MSShapeGroup" x="3" y="11" width="3" height="2"></rect>
        <rect id="Rectangle-3" sketch:type="MSShapeGroup" x="12" y="11" width="3" height="2"></rect>
        <rect id="Rectangle-2" sketch:type="MSShapeGroup" x="7" y="11" width="4" height="2"></rect>
    </g>
</svg>