<svg width="25" height="25" viewBox="0 0 25 25" fill="none" xmlns="http://www.w3.org/2000/svg">
<path d="M19.35 4.24a1 1 0 011.41.11C22.16 6 23 8.88 23 12s-.83 6-2.24 7.65a1 1 0 11-1.52-1.3C20.22 17.2 21 14.86 21 12c0-2.86-.78-5.2-1.76-6.35a1 1 0 01.11-1.41z" fill="currentColor"/>
<path d="M15.26 5.32a1 1 0 011.42-.06C18.14 6.6 19 8.96 19 11.5s-.86 4.9-2.32 6.24a1 1 0 01-1.36-1.48c.93-.85 1.68-2.6 1.68-4.76 0-2.16-.75-3.9-1.68-4.76a1 1 0 01-.06-1.42z" fill="currentColor"/>
<path fill-rule="evenodd" clip-rule="evenodd" d="M6.96 14.72a1 1 0 01-1.92.55L4.96 15H3.04l-.08.27a1 1 0 01-1.92-.55l2-7a1 1 0 011.92 0l2 7zM4 11.64L4.39 13H3.6L4 11.64zM9.9 15.98l.1-1-.1 1h.03l.05.01a4.33 4.33 0 00.7 0 5.65 5.65 0 001.67-.36c.63-.24 1.3-.66 1.82-1.35.52-.7.82-1.62.83-2.77 0-1.15-.29-2.07-.8-2.78a4.02 4.02 0 00-1.83-1.36A5.73 5.73 0 009.93 7h-.02l.09 1-.1-1a1 1 0 00-.9 1V15c0 .51.4.94.9 1zm1.1-2.04V9.06c.21.03.43.09.65.17.37.15.7.36.93.68.23.31.43.8.42 1.58 0 .8-.21 1.28-.44 1.6-.24.32-.57.53-.93.68-.21.08-.43.13-.63.17z" fill="currentColor"/>
</svg>

