<?xml version="1.0" encoding="UTF-8"?>
<svg width="18px" height="18px" viewBox="0 0 18 18" xml:space="preserve" xmlns="http://www.w3.org/2000/svg" xmlns:cc="http://creativecommons.org/ns#" xmlns:dc="http://purl.org/dc/elements/1.1/" xmlns:rdf="http://www.w3.org/1999/02/22-rdf-syntax-ns#"><metadata><rdf:RDF><cc:Work rdf:about=""><dc:format>image/svg+xml</dc:format><dc:type rdf:resource="http://purl.org/dc/dcmitype/StillImage"/><dc:title/></cc:Work></rdf:RDF></metadata>

<g transform="translate(-.75 -77.75)" fill-opacity="0.5">
<path d="m14.25 79.255c-0.47145 0.01013-0.94563-0.01325-1.4153 0.03098-0.51011 0.07893-0.93657 0.56585-0.90384 1.0884-0.01956 0.57724 0.52292 1.1037 1.1007 1.0659 0.82658 0.02752 1.6647 0.0017 2.4847 0.04524 0.49138 0.10797 0.86909 0.59072 0.84949 1.0956 0.02651 2.0076 0.0079 4.0155 0.01324 6.0233-0.0097 0.85979 0.01929 1.7214-0.03608 2.5799-0.06042 0.3858-0.37361 0.70672-0.7358 0.83391-0.27941 0.08595-0.57938 0.03729-0.86721 0.05633-0.64704 0.01516-1.2969-0.02464-1.9421 0.03334-0.36761 0.06306-0.68067 0.35403-0.81186 0.69756-0.07358 0.23998-0.0832 0.51327 0.0061 0.74979 0.16085 0.40352 0.5684 0.72382 1.0158 0.69165 1.1639 0.01415 2.3282 7.51e-4 3.492-0.0018 0.61861-0.14036 1.1963-0.48249 1.5728-0.9989 0.35219-0.45774 0.50776-1.0443 0.4789-1.6173 0.01599-3.0331 0.0041-6.0664-0.0039-9.0995-0.01488-0.46373 0.01694-0.93351-0.05934-1.3927-0.20977-0.78043-0.80497-1.4469-1.568-1.721-0.59005-0.21845-1.2313-0.13592-1.8466-0.16-0.27451-0.0011-0.54903-0.0011-0.82354-6.2e-4z" stroke-width=".022032"/><path d="m3.8953 79.278c-0.47035 0.0056-0.96233-0.02407-1.4002 0.18138-0.92515 0.37508-1.5754 1.3523-1.5261 2.3548-0.019815 3.4461-0.00248 6.8924 2.31e-4 10.338 0.11693 0.51219 0.33841 1.0128 0.72534 1.3788 0.37122 0.38406 0.87953 0.62989 1.4052 0.70851 1.1393 0.01924 2.2793 0.027 3.4186 0.0074 0.29392 0.01277 0.5839-0.10821 0.77797-0.32979 0.20778-0.216 0.3189-0.51537 0.29042-0.81503-0.00633-0.4575-0.37072-0.86682-0.80319-0.98272-0.51682-0.07217-1.0423-0.02919-1.5625-0.04307-0.40778-0.0093-0.81902 0.01757-1.2245-0.03134-0.4342-0.11055-0.78771-0.50119-0.84596-0.94313 0.00117-2.7918-0.018033-5.5836-0.00113-8.3753-0.015778-0.31959 0.056833-0.65626 0.28114-0.8973 0.20274-0.22182 0.49446-0.3825 0.80138-0.35734 0.8254-0.02381 1.6523-4.3e-4 2.477-0.04299 0.5151-0.09282 0.93707-0.60531 0.8775-1.1361-0.00364-0.43487-0.32998-0.81588-0.72501-0.96818-0.17564-0.08071-0.38283-0.01959-0.57176-0.03982-0.79815-0.0025-1.5963-0.0078-2.3945-0.0071z" stroke-width=".022032"/></g><path d="m8.7298 0.13158c-0.46299-0.013987-0.82895 0.38133-0.98724 0.78301v16.196c0.16218 0.43745 0.57707 0.82695 1.0696 0.79808 0.44894 0.0235 0.88145-0.28855 1.0385-0.70146 0.12776-0.38058 0.0499-0.79176 0.077508-1.1854 0.018669-5.0063-0.0013-10.013-0.00244-15.019-0.13379-0.46555-0.55738-0.91628-1.0758-0.87131-0.040037-4.9859e-4 -0.080074 2.7795e-4 -0.12011 3.4072e-4z" stroke-width=".02934" fill-opacity="0.5"/></svg>