<svg width="24" height="24" viewBox="0 0 24 24" fill="none" xmlns="http://www.w3.org/2000/svg">
<path d="M19 4V14.296L18.4566 14.0536C17.7655 13.7454 16.9861 14.2511 16.9861 15.0079C16.9861 15.411 17.218 15.7782 17.5821 15.9514L19.5139 16.8705C20.1804 17.2412 21 16.7593 21 15.9966V4C21 2.34315 19.6569 1 18 1H12C10.3431 1 9 2.34314 9 4C9 4.55228 9.44772 5.00368 10 5.00368C10.5523 5.00368 11 4.55228 11 4C11 3.44772 11.4477 3 12 3H18C18.5523 3 19 3.44772 19 4Z" />
<path fill-rule="evenodd" clip-rule="evenodd" d="M13.5139 22.8705L9 20.2471L4.48611 22.8705C3.81957 23.2412 3 22.7593 3 21.9966V10C3 8.34314 4.34315 7 6 7H12C13.6569 7 15 8.34315 15 10V21.9966C15 22.7593 14.1804 23.2412 13.5139 22.8705ZM5 20.296L8.02779 18.4993C8.63231 18.1631 9.36769 18.1631 9.97221 18.4993L13 20.296V10C13 9.44772 12.5523 9 12 9H6C5.44771 9 5 9.44771 5 10V20.296Z" />
</svg>