<svg width="25" height="25" viewBox="0 0 25 25" fill="none" xmlns="http://www.w3.org/2000/svg">
<path d="M3.50001 1.51701C3.10949 1.12649 2.47633 1.12649 2.0858 1.51701C1.69528 1.90754 1.69528 2.5407 2.0858 2.93123L7.61762 8.46305C6.5423 8.91911 5.78802 9.98455 5.78802 11.2262V13.2262C5.78802 14.883 7.13117 16.2262 8.78802 16.2262C9.61695 16.2262 10.3674 15.89 10.9103 15.3465L10.9112 15.3474C11.3017 14.9569 11.3017 14.3237 10.9112 13.9332C10.5222 13.5441 9.89229 13.5427 9.50142 13.9288L9.50049 13.9279C9.31911 14.112 9.0669 14.2262 8.78802 14.2262C8.23574 14.2262 7.78802 13.7785 7.78802 13.2262V11.2262C7.78802 10.6739 8.23574 10.2262 8.78802 10.2262C9.0669 10.2262 9.31911 10.3403 9.50049 10.5245L9.50139 10.5235C9.62476 10.6454 9.77193 10.7286 9.92781 10.7732L22.0844 22.9299C22.475 23.3204 23.1081 23.3204 23.4986 22.9299C23.8892 22.5393 23.8892 21.9062 23.4986 21.5156L21.9668 19.9838C23.0377 19.5258 23.788 18.4626 23.788 17.2242V7.22421C23.788 5.56736 22.4449 4.22421 20.788 4.22421H6.20721L3.50001 1.51701ZM8.20721 6.22421H20.788C21.3403 6.22421 21.788 6.67193 21.788 7.22421V17.2242C21.788 17.7765 21.3403 18.2242 20.788 18.2242H20.2072L17.9668 15.9838C18.3217 15.832 18.6415 15.6137 18.9103 15.3446L18.9112 15.3455C19.3017 14.9549 19.3017 14.3218 18.9112 13.9312C18.5222 13.5422 17.8923 13.5407 17.5014 13.9269L17.5005 13.9259C17.3191 14.1101 17.0669 14.2242 16.788 14.2242C16.2357 14.2242 15.788 13.7765 15.788 13.2242V11.2242C15.788 10.6719 16.2357 10.2242 16.788 10.2242C17.0669 10.2242 17.3191 10.3384 17.5005 10.5225L17.5014 10.5216C17.8923 10.9076 18.5221 10.9061 18.9111 10.5171C19.3016 10.1266 19.3016 9.4934 18.9111 9.10288L18.9102 9.10375C18.3672 8.56035 17.6169 8.22421 16.788 8.22421C15.1312 8.22421 13.788 9.56736 13.788 11.2242V11.805L8.20721 6.22421Z" fill="currentColor"/>
<path d="M4.78802 18.2242C4.23574 18.2242 3.78802 17.7765 3.78802 17.2242V8.22421C3.78802 7.67193 3.34031 7.22421 2.78802 7.22421C2.23574 7.22421 1.78802 7.67193 1.78802 8.22421V17.2242C1.78802 18.8811 3.13117 20.2242 4.78802 20.2242H13.5654C14.1177 20.2242 14.5654 19.7765 14.5654 19.2242C14.5654 18.6719 14.1177 18.2242 13.5654 18.2242H4.78802Z" fill="currentColor"/>
</svg>