<?xml version="1.0" encoding="UTF-8" standalone="no"?>
<svg width="18px" height="18px" viewBox="0 0 18 18" version="1.1" xmlns="http://www.w3.org/2000/svg" xmlns:xlink="http://www.w3.org/1999/xlink">
    <g>
        <path d="M9.7,1.2 L10.4,7.6 L12.5,5.5 C14.4,7.4 14.4,10.6 12.5,12.5 C11.6,13.5 10.3,14 9,14 C7.7,14 6.4,13.5 5.5,12.5 C3.6,10.6 3.6,7.4 5.5,5.5 C6.1,4.9 6.9,4.4 7.8,4.2 L7.2,2.3 C6,2.6 4.9,3.2 4,4.1 C1.3,6.8 1.3,11.2 4,14 C5.3,15.3 7.1,16 8.9,16 C10.8,16 12.5,15.3 13.8,14 C16.5,11.3 16.5,6.9 13.8,4.1 L16,1.9 L9.7,1.2 L9.7,1.2 Z"></path>
    </g>
</svg>