<svg width="18px" height="18px" viewBox="0 0 18 18" xmlns="http://www.w3.org/2000/svg">
    <g fill-rule="evenodd" fill-opacity="0.5">
        <path d="M1,1 C0.4,1 0,1.4 0,2 L0,13 C0,13.6 0.4,14 1,14 L5.6,14 L8.3,16.7 C8.5,16.9 8.7,17 9,17 C9.3,17 9.5,16.9 9.7,16.7 L12.4,14 L17,14 C17.6,14 18,13.6 18,13 L18,2 C18,1.4 17.6,1 17,1 L1,1 Z M5.52,11.15 C7.51,11.15 8.53,9.83 8.8,8.74 L7.51,8.35 C7.32,9.01 6.73,9.8 5.52,9.8 C4.38,9.8 3.32,8.97 3.32,7.46 C3.32,5.85 4.44,5.09 5.5,5.09 C6.73,5.09 7.28,5.84 7.45,6.52 L8.75,6.11 C8.47,4.96 7.46,3.76 5.5,3.76 C3.6,3.76 1.89,5.2 1.89,7.46 C1.89,9.72 3.54,11.15 5.52,11.15 Z M13.09,11.15 C15.08,11.15 16.1,9.83 16.37,8.74 L15.08,8.35 C14.89,9.01 14.3,9.8 13.09,9.8 C11.95,9.8 10.89,8.97 10.89,7.46 C10.89,5.85 12.01,5.09 13.07,5.09 C14.3,5.09 14.85,5.84 15.02,6.52 L16.32,6.11 C16.04,4.96 15.03,3.76 13.07,3.76 C11.17,3.76 9.46,5.2 9.46,7.46 C9.46,9.72 11.11,11.15 13.09,11.15 Z"></path>
    </g>
</svg>