<svg width="25" height="25" viewBox="0 0 25 25" fill="none" xmlns="http://www.w3.org/2000/svg">
<path d="M6.37494 2.22412C4.1658 2.22412 2.37494 4.01498 2.37494 6.22412V9.22412C2.37494 9.77641 2.82265 10.2241 3.37494 10.2241C3.92722 10.2241 4.37494 9.77641 4.37494 9.22412V6.22412C4.37494 5.11955 5.27037 4.22412 6.37494 4.22412H9.37494C9.92722 4.22412 10.3749 3.77641 10.3749 3.22412C10.3749 2.67184 9.92722 2.22412 9.37494 2.22412H6.37494Z" fill="#212121"/>
<path d="M2.37494 18.2241C2.37494 20.4333 4.1658 22.2241 6.37494 22.2241H9.37494C9.92722 22.2241 10.3749 21.7764 10.3749 21.2241C10.3749 20.6718 9.92722 20.2241 9.37494 20.2241H6.37494C5.27037 20.2241 4.37494 19.3287 4.37494 18.2241L4.37494 15.2241C4.37494 14.6718 3.92722 14.2241 3.37494 14.2241C2.82265 14.2241 2.37494 14.6718 2.37494 15.2241V18.2241Z" fill="#212121"/>
<path d="M22.3749 18.2241C22.3749 20.4333 20.5841 22.2241 18.3749 22.2241H15.3749C14.8227 22.2241 14.3749 21.7764 14.3749 21.2241C14.3749 20.6718 14.8227 20.2241 15.3749 20.2241H18.3749C19.4795 20.2241 20.3749 19.3287 20.3749 18.2241V15.2241C20.3749 14.6718 20.8227 14.2241 21.3749 14.2241C21.9272 14.2241 22.3749 14.6718 22.3749 15.2241V18.2241Z" fill="#212121"/>
<path d="M22.3749 6.22412C22.3749 4.01498 20.5841 2.22412 18.3749 2.22412H15.3749C14.8227 2.22412 14.3749 2.67184 14.3749 3.22412C14.3749 3.77641 14.8227 4.22412 15.3749 4.22412L18.3749 4.22412C19.4795 4.22412 20.3749 5.11955 20.3749 6.22412V9.22412C20.3749 9.77641 20.8227 10.2241 21.3749 10.2241C21.9272 10.2241 22.3749 9.77641 22.3749 9.22412V6.22412Z" fill="#212121"/>
</svg>