<svg width="25" height="25" viewBox="0 0 25 25" fill="none" xmlns="http://www.w3.org/2000/svg">
<path d="M10.1625 12.543L9.3705 10.3785C9.3315 10.2825 9.291 10.1685 9.249 10.0365C9.207 9.9045 9.165 9.762 9.123 9.609C9.084 9.762 9.0435 9.906 9.0015 10.041C8.9595 10.173 8.919 10.2885 8.88 10.3875L8.0925 12.543H10.1625ZM12.3 15H11.364C11.259 15 11.1735 14.9745 11.1075 14.9235C11.0415 14.8695 10.992 14.8035 10.959 14.7255L10.473 13.398H7.7775L7.2915 14.7255C7.2675 14.7945 7.221 14.8575 7.152 14.9145C7.083 14.9715 6.9975 15 6.8955 15H5.9505L8.511 8.493H9.744L12.3 15ZM20.6412 11.7465C20.6412 12.2235 20.5617 12.6615 20.4027 13.0605C20.2437 13.4595 20.0202 13.803 19.7322 14.091C19.4442 14.379 19.0977 14.6025 18.6927 14.7615C18.2877 14.9205 17.8377 15 17.3427 15H14.8632V8.493H17.3427C17.8377 8.493 18.2877 8.574 18.6927 8.736C19.0977 8.895 19.4442 9.1185 19.7322 9.4065C20.0202 9.6915 20.2437 10.0335 20.4027 10.4325C20.5617 10.8315 20.6412 11.2695 20.6412 11.7465ZM19.3992 11.7465C19.3992 11.3895 19.3512 11.07 19.2552 10.788C19.1622 10.503 19.0257 10.263 18.8457 10.068C18.6687 9.87 18.4527 9.7185 18.1977 9.6135C17.9457 9.5085 17.6607 9.456 17.3427 9.456H16.0782V14.037H17.3427C17.6607 14.037 17.9457 13.9845 18.1977 13.8795C18.4527 13.7745 18.6687 13.6245 18.8457 13.4295C19.0257 13.2315 19.1622 12.9915 19.2552 12.7095C19.3512 12.4245 19.3992 12.1035 19.3992 11.7465Z" fill="black"/>
<path fill-rule="evenodd" clip-rule="evenodd" d="M3.50001 1.51701C3.10949 1.12649 2.47633 1.12649 2.0858 1.51701C1.69528 1.90754 1.69528 2.5407 2.0858 2.93123L7.61762 8.46305C7.74099 8.58495 9.77193 10.7286 9.92781 10.7732L22.0844 22.9299C22.475 23.3204 23.1081 23.3204 23.4986 22.9299C23.8892 22.5393 23.8892 21.9062 23.4986 21.5156L21.9668 19.9838C23.0377 19.5258 23.788 18.4626 23.788 17.2242V7.22421C23.788 5.56736 22.4449 4.22421 20.788 4.22421H6.20721L3.50001 1.51701ZM20.788 6.22421H8.20721L17.9668 15.9838L20.2072 18.2242H20.788C21.3403 18.2242 21.788 17.7765 21.788 17.2242V7.22421C21.788 6.67193 21.3403 6.22421 20.788 6.22421Z" fill="currentColor"/>
<path d="M4.78802 18.2242C4.23574 18.2242 3.78802 17.7765 3.78802 17.2242V8.22421C3.78802 7.67193 3.34031 7.22421 2.78802 7.22421C2.23574 7.22421 1.78802 7.67193 1.78802 8.22421V17.2242C1.78802 18.8811 3.13117 20.2242 4.78802 20.2242H13.5654C14.1177 20.2242 14.5654 19.7765 14.5654 19.2242C14.5654 18.6719 14.1177 18.2242 13.5654 18.2242H4.78802Z" fill="currentColor"/>
</svg>
