<svg width="25" height="25" viewBox="0 0 25 25" fill="none" xmlns="http://www.w3.org/2000/svg">
<path d="M5.20111 11.2241C5.20111 9.56727 6.54426 8.22412 8.20111 8.22412C9.02997 8.22412 9.78032 8.56026 10.3233 9.10366L10.3242 9.10278C10.7147 9.49331 10.7147 10.1265 10.3242 10.517C9.93514 10.906 9.30535 10.9075 8.91448 10.5215L8.91357 10.5224C8.7322 10.3383 8.47999 10.2241 8.20111 10.2241C7.64883 10.2241 7.20111 10.6718 7.20111 11.2241V13.2241C7.20111 13.7764 7.64883 14.2241 8.20111 14.2241C8.47999 14.2241 8.7322 14.11 8.91357 13.9258L8.91438 13.9266C9.30526 13.5406 9.93505 13.5421 10.3241 13.9312C10.7146 14.3217 10.7146 14.9548 10.3241 15.3454L10.3233 15.3446C9.78032 15.888 9.02997 16.2241 8.20111 16.2241C6.54426 16.2241 5.20111 14.881 5.20111 13.2241V11.2241Z" fill="currentColor"/>
<path d="M16.2011 8.22412C14.5443 8.22412 13.2011 9.56727 13.2011 11.2241V13.2241C13.2011 14.881 14.5443 16.2241 16.2011 16.2241C17.03 16.2241 17.7803 15.888 18.3233 15.3446L18.3241 15.3454C18.7146 14.9548 18.7146 14.3217 18.3241 13.9312C17.935 13.5421 17.3053 13.5406 16.9144 13.9266L16.9136 13.9258C16.7322 14.11 16.48 14.2241 16.2011 14.2241C15.6488 14.2241 15.2011 13.7764 15.2011 13.2241V11.2241C15.2011 10.6718 15.6488 10.2241 16.2011 10.2241C16.48 10.2241 16.7322 10.3383 16.9136 10.5224L16.9145 10.5215C17.3054 10.9075 17.9351 10.906 18.3242 10.517C18.7147 10.1265 18.7147 9.49331 18.3242 9.10278L18.3233 9.10366C17.7803 8.56026 17.03 8.22412 16.2011 8.22412Z" fill="currentColor"/>
<path d="M4.20111 4.22412C2.54426 4.22412 1.20111 5.56727 1.20111 7.22412V17.2241C1.20111 18.881 2.54426 20.2241 4.20111 20.2241H20.2011C21.858 20.2241 23.2011 18.881 23.2011 17.2241V7.22412C23.2011 5.56727 21.858 4.22412 20.2011 4.22412H4.20111ZM20.2011 6.22412C20.7534 6.22412 21.2011 6.67184 21.2011 7.22412V17.2241C21.2011 17.7764 20.7534 18.2241 20.2011 18.2241H4.20111C3.64883 18.2241 3.20111 17.7764 3.20111 17.2241V7.22412C3.20111 6.67184 3.64883 6.22412 4.20111 6.22412H20.2011Z" fill="currentColor"/>
</svg>
