<?xml version="1.0" encoding="UTF-8" standalone="no"?>
<svg width="24px" height="18px" viewBox="0 0 24 18" version="1.1" xmlns="http://www.w3.org/2000/svg" xmlns:xlink="http://www.w3.org/1999/xlink">
    <!-- Generator: Sketch 39.1 (31720) - http://www.bohemiancoding.com/sketch -->
    <g fill-rule="evenodd" fill-opacity="0.5">
        <g id="-" transform="translate(-71.000000, -26.000000)">
            <path d="M71,26.9933977 C71,26.4447593 71.4474692,26 72.0006946,26 L93.9993054,26 C94.5519738,26 95,26.4449463 95,26.9933977 L95,43.0066023 C95,43.5552407 94.5525308,44 93.9993054,44 L72.0006946,44 C71.4480262,44 71,43.5550537 71,43.0066023 L71,26.9933977 Z M92.6,34.7 C92.6,35.5284271 91.9325806,36.2 91.1075617,36.2 L89.2924383,36.2 C88.4681874,36.2 87.8,35.5342028 87.8,34.7 C87.8,33.8715729 88.4674194,33.2 89.2924383,33.2 L91.1075617,33.2 C91.9318126,33.2 92.6,33.8657972 92.6,34.7 Z M86.6,34.7 C86.6,35.5284271 85.9272626,36.2 85.0986436,36.2 L74.9013564,36.2 C74.0721801,36.2 73.4,35.5342028 73.4,34.7 C73.4,33.8715729 74.0727374,33.2 74.9013564,33.2 L85.0986436,33.2 C85.9278199,33.2 86.6,33.8657972 86.6,34.7 Z M79.4,39.5 C79.4,38.6715729 80.0727374,38 80.9013564,38 L91.0986436,38 C91.9278199,38 92.6,38.6657972 92.6,39.5 C92.6,40.3284271 91.9272626,41 91.0986436,41 L80.9013564,41 C80.0721801,41 79.4,40.3342028 79.4,39.5 Z M73.4,39.5 C73.4,38.6715729 74.0674194,38 74.8924383,38 L76.7075617,38 C77.5318126,38 78.2,38.6657972 78.2,39.5 C78.2,40.3284271 77.5325806,41 76.7075617,41 L74.8924383,41 C74.0681874,41 73.4,40.3342028 73.4,39.5 Z"></path>
        </g>
    </g>
</svg>