<svg width="24" height="24" viewBox="0 0 24 24" fill="none" xmlns="http://www.w3.org/2000/svg">
<path d="M18.5554 3.16837C18.0961 2.86166 17.4751 2.98534 17.1684 3.44463C16.8617 3.90391 16.9854 4.52488 17.4446 4.83159C19.5347 6.22734 21 8.88651 21 12C21 15.1135 19.5347 17.7726 17.4446 19.1684C16.9854 19.4751 16.8617 20.0961 17.1684 20.5553C17.4751 21.0146 18.0961 21.1383 18.5554 20.8316C21.2477 19.0336 23 15.7234 23 12C23 8.27654 21.2477 4.96637 18.5554 3.16837Z" fill="#212121"/>
<path d="M5.16667 16.1666L7.58579 18.5858C8.84572 19.8457 11 18.9534 11 17.1716V6.82841C11 5.0466 8.84571 4.15427 7.58578 5.4142L5.16667 7.83332H3C1.89543 7.83332 1 8.72875 1 9.83332V14.1666C1 15.2712 1.89543 16.1666 3 16.1666H5.16667ZM5.99509 9.83332L9 6.82841V17.1716L5.99509 14.1666H3V9.83332H5.99509Z" fill="#212121"/>
<path d="M14.1684 7.44463C14.4751 6.98534 15.0961 6.86166 15.5554 7.16837C17.0521 8.16793 18 9.98577 18 12C18 14.0142 17.0521 15.832 15.5554 16.8316C15.0961 17.1383 14.4751 17.0146 14.1684 16.5553C13.8617 16.0961 13.9854 15.4751 14.4446 15.1684C15.3391 14.5711 16 13.4042 16 12C16 10.5957 15.3391 9.4289 14.4446 8.83159C13.9854 8.52488 13.8617 7.90391 14.1684 7.44463Z" fill="#212121"/>
</svg>