<svg width="25" height="25" viewBox="0 0 25 25" fill="none" xmlns="http://www.w3.org/2000/svg">
<path d="M4.20111 4.22412C2.54426 4.22412 1.20111 5.56727 1.20111 7.22412V17.2241C1.20111 18.881 2.54426 20.2241 4.20111 20.2241H20.2011C21.858 20.2241 23.2011 18.881 23.2011 17.2241V7.22412C23.2011 5.56727 21.858 4.22412 20.2011 4.22412H4.20111ZM20.2011 6.22412C20.7534 6.22412 21.2011 6.67184 21.2011 7.22412V17.2241C21.2011 17.7764 20.7534 18.2241 20.2011 18.2241H4.20111C3.64883 18.2241 3.20111 17.7764 3.20111 17.2241V7.22412C3.20111 6.67184 3.64883 6.22412 4.20111 6.22412H20.2011Z" fill="currentColor"/>
<path d="M9.1625 12.543L8.3705 10.3785C8.3315 10.2825 8.291 10.1685 8.249 10.0365C8.207 9.9045 8.165 9.762 8.123 9.609C8.084 9.762 8.0435 9.906 8.0015 10.041C7.9595 10.173 7.919 10.2885 7.88 10.3875L7.0925 12.543H9.1625ZM11.3 15H10.364C10.259 15 10.1735 14.9745 10.1075 14.9235C10.0415 14.8695 9.992 14.8035 9.959 14.7255L9.473 13.398H6.7775L6.2915 14.7255C6.2675 14.7945 6.221 14.8575 6.152 14.9145C6.083 14.9715 5.9975 15 5.8955 15H4.9505L7.511 8.493H8.744L11.3 15ZM19.6412 11.7465C19.6412 12.2235 19.5617 12.6615 19.4027 13.0605C19.2437 13.4595 19.0202 13.803 18.7322 14.091C18.4442 14.379 18.0977 14.6025 17.6927 14.7615C17.2877 14.9205 16.8377 15 16.3427 15H13.8632V8.493H16.3427C16.8377 8.493 17.2877 8.574 17.6927 8.736C18.0977 8.895 18.4442 9.1185 18.7322 9.4065C19.0202 9.6915 19.2437 10.0335 19.4027 10.4325C19.5617 10.8315 19.6412 11.2695 19.6412 11.7465ZM18.3992 11.7465C18.3992 11.3895 18.3512 11.07 18.2552 10.788C18.1622 10.503 18.0257 10.263 17.8457 10.068C17.6687 9.87 17.4527 9.7185 17.1977 9.6135C16.9457 9.5085 16.6607 9.456 16.3427 9.456H15.0782V14.037H16.3427C16.6607 14.037 16.9457 13.9845 17.1977 13.8795C17.4527 13.7745 17.6687 13.6245 17.8457 13.4295C18.0257 13.2315 18.1622 12.9915 18.2552 12.7095C18.3512 12.4245 18.3992 12.1035 18.3992 11.7465Z" fill="black"/>
</svg>
