<svg width="25" height="25" viewBox="0 0 25 25" fill="none" xmlns="http://www.w3.org/2000/svg">
<path d="M5.02661 4.24487C4.47433 4.24487 4.02661 4.69259 4.02661 5.24487V19.2449C4.02661 19.7972 4.47433 20.2449 5.02661 20.2449H9.02661C9.5789 20.2449 10.0266 19.7972 10.0266 19.2449V5.24487C10.0266 4.69259 9.5789 4.24487 9.02661 4.24487H5.02661Z" fill="currentColor"/>
<path d="M15.0266 4.24487C14.4743 4.24487 14.0266 4.69259 14.0266 5.24487V19.2449C14.0266 19.7972 14.4743 20.2449 15.0266 20.2449H19.0266C19.5789 20.2449 20.0266 19.7972 20.0266 19.2449V5.24487C20.0266 4.69259 19.5789 4.24487 19.0266 4.24487H15.0266Z" fill="currentColor"/>
</svg>