<svg width="25" height="25" viewBox="0 0 25 25" fill="none" xmlns="http://www.w3.org/2000/svg">
<path d="M6.38988 11.8155L7.66765 10.5378C8.05817 10.1472 8.69134 10.1472 9.08186 10.5378C9.47239 10.9283 9.47239 11.5615 9.08186 11.952L6.08186 14.952C5.69134 15.3425 5.05817 15.3425 4.66765 14.952L1.66765 11.952C1.27712 11.5615 1.27712 10.9283 1.66765 10.5378C2.05817 10.1472 2.69134 10.1472 3.08186 10.5378L4.38479 11.8407C4.5953 7.61021 8.09202 4.24487 12.3748 4.24487C16.793 4.24487 20.3748 7.82659 20.3748 12.2449C20.3748 16.6631 16.793 20.2449 12.3748 20.2449C11.8225 20.2449 11.3748 19.7972 11.3748 19.2449C11.3748 18.6926 11.8225 18.2449 12.3748 18.2449C15.6885 18.2449 18.3748 15.5586 18.3748 12.2449C18.3748 8.93116 15.6885 6.24487 12.3748 6.24487C9.20541 6.24487 6.61 8.70221 6.38988 11.8155Z" fill="currentColor"/>
</svg>