<svg width="25" height="25" viewBox="0 0 25 25" fill="none" xmlns="http://www.w3.org/2000/svg">
<path d="M6.96185 10.2241C9.17099 10.2241 10.9619 8.43326 10.9619 6.22412L10.9619 3.22412C10.9619 2.67184 10.5141 2.22412 9.96185 2.22412C9.40957 2.22412 8.96185 2.67184 8.96185 3.22412V6.22412C8.96185 7.32869 8.06642 8.22412 6.96185 8.22412H3.96185C3.40957 8.22412 2.96185 8.67184 2.96185 9.22412C2.96185 9.77641 3.40957 10.2241 3.96185 10.2241H6.96185Z" fill="currentColor"/>
<path d="M10.9619 18.2241C10.9619 16.015 9.17099 14.2241 6.96185 14.2241H3.96185C3.40957 14.2241 2.96185 14.6718 2.96185 15.2241C2.96185 15.7764 3.40957 16.2241 3.96185 16.2241H6.96185C8.06642 16.2241 8.96185 17.1196 8.96185 18.2241L8.96185 21.2241C8.96185 21.7764 9.40957 22.2241 9.96185 22.2241C10.5141 22.2241 10.9619 21.7764 10.9619 21.2241L10.9619 18.2241Z" fill="currentColor"/>
<path d="M14.9619 18.2241C14.9619 16.015 16.7527 14.2241 18.9619 14.2241H21.9619C22.5141 14.2241 22.9619 14.6718 22.9619 15.2241C22.9619 15.7764 22.5141 16.2241 21.9619 16.2241H18.9619C17.8573 16.2241 16.9619 17.1196 16.9619 18.2241V21.2241C16.9619 21.7764 16.5141 22.2241 15.9619 22.2241C15.4096 22.2241 14.9619 21.7764 14.9619 21.2241V18.2241Z" fill="currentColor"/>
<path d="M14.9619 6.22412C14.9619 8.43326 16.7527 10.2241 18.9619 10.2241H21.9619C22.5141 10.2241 22.9619 9.77641 22.9619 9.22412C22.9619 8.67184 22.5141 8.22412 21.9619 8.22412H18.9619C17.8573 8.22412 16.9619 7.32869 16.9619 6.22412V3.22412C16.9619 2.67184 16.5141 2.22412 15.9619 2.22412C15.4096 2.22412 14.9619 2.67184 14.9619 3.22412V6.22412Z" fill="currentColor"/>
</svg>