<svg width="25" height="25" viewBox="0 0 25 25" fill="none" xmlns="http://www.w3.org/2000/svg">
<path d="M2.3 1.3a1 1 0 011.4 0l5.84 5.82a1 1 0 01.37-.1h.02a2.97 2.97 0 01.22-.02 6.03 6.03 0 012.22.37c.63.24 1.31.66 1.82 1.36.52.7.82 1.63.81 2.78 0 .35-.03.68-.09 1l1.67 1.66c.26-.77.42-1.68.42-2.67 0-2.16-.75-3.9-1.68-4.76a1 1 0 011.36-1.48C18.14 6.6 19 8.96 19 11.5c0 1.53-.31 3-.88 4.21l1.73 1.73C20.52 16.16 21 14.24 21 12c0-2.86-.78-5.2-1.76-6.35a1 1 0 111.52-1.3C22.16 6 23 8.88 23 12c0 2.7-.62 5.2-1.7 6.9l1.4 1.4a1 1 0 01-1.42 1.4L2.3 2.7a1 1 0 010-1.4zM9 12.25v2.74c0 .51.4.94.9 1h.08a4.32 4.32 0 00.7 0 5.65 5.65 0 001.67-.36h.02L9 12.24z" fill="currentColor"/>
<path fill-rule="evenodd" clip-rule="evenodd" d="M6.96 14.72a1 1 0 01-1.92.55L4.96 15H3.04l-.08.27a1 1 0 01-1.92-.55l2-7a1 1 0 011.92 0l2 7zM4 11.64L4.39 13H3.6L4 11.64z" fill="currentColor"/>
</svg>

