<svg width="25" height="25" viewBox="0 0 25 25" fill="none" xmlns="http://www.w3.org/2000/svg">
<path d="M7.89536 18.8306L5.47624 16.4115H3.30957C2.205 16.4115 1.30957 15.516 1.30957 14.4115V10.0781C1.30957 8.97356 2.205 8.07813 3.30957 8.07813H5.47624L7.89535 5.65901C9.15528 4.39908 11.3096 5.29141 11.3096 7.07322V17.4164C11.3096 19.1982 9.15529 20.0905 7.89536 18.8306ZM6.30466 10.0781H3.30957V14.4115H6.30466L9.30957 17.4164V7.07322L6.30466 10.0781Z" fill="currentColor"/>
<path d="M17.0258 9.03925C16.6332 8.64664 15.9966 8.64664 15.604 9.03925C15.2114 9.43185 15.2114 10.0684 15.604 10.461L17.3878 12.2448L15.604 14.0285C15.2114 14.4211 15.2114 15.0577 15.604 15.4503C15.9966 15.8429 16.6332 15.8429 17.0258 15.4503L18.8095 13.6665L20.5932 15.4502C20.9858 15.8428 21.6224 15.8428 22.015 15.4502C22.4076 15.0576 22.4076 14.421 22.015 14.0284L20.2313 12.2448L22.015 10.4611C22.4076 10.0685 22.4076 9.43195 22.015 9.03934C21.6224 8.64674 20.9858 8.64674 20.5932 9.03934L18.8095 10.823L17.0258 9.03925Z" fill="currentColor"/>
</svg>