
<svg width="24" height="24" viewBox="0 0 24 24" fill="none" xmlns="http://www.w3.org/2000/svg">
    <path d="M5 4C4.44772 4 4 4.44772 4 5C4 5.55228 4.44772 6 5 6L19 6C19.5523 6 20 5.55229 20 5C20 4.44772 19.5523 4 19 4H5Z" />
    <path d="M5 9C4.44772 9 4 9.44772 4 10C4 10.5523 4.44772 11 5 11L19 11C19.5523 11 20 10.5523 20 10C20 9.44772 19.5523 9 19 9L5 9Z" />
    <path d="M4 15C4 14.4477 4.44772 14 5 14L12 14C12.5523 14 13 14.4477 13 15C13 15.5523 12.5523 16 12 16L5 16C4.44772 16 4 15.5523 4 15Z" />
    <path d="M17.5812 14.1294C16.9194 13.6567 16 14.1298 16 14.9432V21.0568C16 21.8702 16.9194 22.3433 17.5812 21.8705L21.8608 18.8137C22.4191 18.4149 22.4191 17.5851 21.8608 17.1862L17.5812 14.1294Z" />
</svg>