<?xml version="1.0" encoding="utf-8"?>
<svg version="1.1" width="16px" height="16px" viewBox="0 0 16 16" version="1.1" xmlns="http://www.w3.org/2000/svg" xmlns:xlink="http://www.w3.org/1999/xlink" xml:space="preserve">
<path d="M15.135,6.784c-1.303-0.326-1.921-1.818-1.23-2.969c0.322-0.536,0.225-0.998-0.094-1.316l-0.31-0.31
	c-0.318-0.318-0.78-0.415-1.316-0.094c-1.152,0.691-2.644,0.073-2.969-1.23C9.065,0.258,8.669,0,8.219,0H7.781
	c-0.45,0-0.845,0.258-0.997,0.865c-0.326,1.303-1.818,1.921-2.969,1.23C3.279,1.773,2.816,1.87,2.498,2.188l-0.31,0.31
	C1.87,2.816,1.773,3.279,2.095,3.815c0.691,1.152,0.073,2.644-1.23,2.969C0.26,6.935,0,7.33,0,7.781v0.438
	c0,0.45,0.258,0.845,0.865,0.997c1.303,0.326,1.921,1.818,1.23,2.969c-0.322,0.536-0.225,0.998,0.094,1.316l0.31,0.31
	c0.319,0.319,0.782,0.415,1.316,0.094c1.152-0.691,2.644-0.073,2.969,1.23C6.935,15.742,7.331,16,7.781,16h0.438
	c0.45,0,0.845-0.258,0.997-0.865c0.326-1.303,1.818-1.921,2.969-1.23c0.535,0.321,0.997,0.225,1.316-0.094l0.31-0.31
	c0.318-0.318,0.415-0.781,0.094-1.316c-0.691-1.152-0.073-2.644,1.23-2.969C15.742,9.065,16,8.669,16,8.219V7.781
	C16,7.33,15.74,6.935,15.135,6.784z M8,11c-1.657,0-3-1.343-3-3s1.343-3,3-3s3,1.343,3,3S9.657,11,8,11z"/>
</svg>
