<?xml version="1.0" encoding="utf-8"?>
<!-- Generated by IcoMoon.io -->
<!DOCTYPE svg PUBLIC "-//W3C//DTD SVG 1.1//EN" "http://www.w3.org/Graphics/SVG/1.1/DTD/svg11.dtd">
<svg version="1.1" xmlns="http://www.w3.org/2000/svg" xmlns:xlink="http://www.w3.org/1999/xlink" width="18" height="18" viewBox="0 0 18 18">
<path d="M16 1h-14c-0.552 0-1 0.448-1 1v12c0 0.552 0.448 1 1 1h5.5c-0.829 0-1.5 0.671-1.5 1.5v0.5h6v-0.5c0-0.829-0.671-1.5-1.5-1.5h5.5c0.552 0 1-0.448 1-1v-12c0-0.552-0.448-1-1-1zM15 12.5c0 0.276-0.224 0.5-0.5 0.5h-11c-0.276 0-0.5-0.224-0.5-0.5v-9c0-0.276 0.224-0.5 0.5-0.5h11c0.276 0 0.5 0.224 0.5 0.5v9z" fill="#444444"></path>
</svg>
