<?xml version="1.0" encoding="UTF-8"?><!DOCTYPE svg PUBLIC "-//W3C//DTD SVG 1.1//EN" "http://www.w3.org/Graphics/SVG/1.1/DTD/svg11.dtd"><svg xmlns="http://www.w3.org/2000/svg" xmlns:xlink="http://www.w3.org/1999/xlink"><symbol id="plyr-airplay" viewBox="0 0 18 18">
    <g>
        <path d="M16,1 L2,1 C1.447,1 1,1.447 1,2 L1,12 C1,12.553 1.447,13 2,13 L5,13 L5,11 L3,11 L3,3 L15,3 L15,11 L13,11 L13,13 L16,13 C16.553,13 17,12.553 17,12 L17,2 C17,1.447 16.553,1 16,1 L16,1 Z"/>
        <polygon points="4 17 14 17 9 11"/>
    </g>
</symbol><symbol id="plyr-captions-off" viewBox="0 0 18 18">
    <g fill-rule="evenodd" fill-opacity="0.5">
        <path d="M1,1 C0.4,1 0,1.4 0,2 L0,13 C0,13.6 0.4,14 1,14 L5.6,14 L8.3,16.7 C8.5,16.9 8.7,17 9,17 C9.3,17 9.5,16.9 9.7,16.7 L12.4,14 L17,14 C17.6,14 18,13.6 18,13 L18,2 C18,1.4 17.6,1 17,1 L1,1 Z M5.52,11.15 C7.51,11.15 8.53,9.83 8.8,8.74 L7.51,8.35 C7.32,9.01 6.73,9.8 5.52,9.8 C4.38,9.8 3.32,8.97 3.32,7.46 C3.32,5.85 4.44,5.09 5.5,5.09 C6.73,5.09 7.28,5.84 7.45,6.52 L8.75,6.11 C8.47,4.96 7.46,3.76 5.5,3.76 C3.6,3.76 1.89,5.2 1.89,7.46 C1.89,9.72 3.54,11.15 5.52,11.15 Z M13.09,11.15 C15.08,11.15 16.1,9.83 16.37,8.74 L15.08,8.35 C14.89,9.01 14.3,9.8 13.09,9.8 C11.95,9.8 10.89,8.97 10.89,7.46 C10.89,5.85 12.01,5.09 13.07,5.09 C14.3,5.09 14.85,5.84 15.02,6.52 L16.32,6.11 C16.04,4.96 15.03,3.76 13.07,3.76 C11.17,3.76 9.46,5.2 9.46,7.46 C9.46,9.72 11.11,11.15 13.09,11.15 Z"/>
    </g>
</symbol><symbol id="plyr-captions-on" viewBox="0 0 18 18">
    <g fill-rule="evenodd">
        <path d="M1,1 C0.4,1 0,1.4 0,2 L0,13 C0,13.6 0.4,14 1,14 L5.6,14 L8.3,16.7 C8.5,16.9 8.7,17 9,17 C9.3,17 9.5,16.9 9.7,16.7 L12.4,14 L17,14 C17.6,14 18,13.6 18,13 L18,2 C18,1.4 17.6,1 17,1 L1,1 Z M5.52,11.15 C7.51,11.15 8.53,9.83 8.8,8.74 L7.51,8.35 C7.32,9.01 6.73,9.8 5.52,9.8 C4.38,9.8 3.32,8.97 3.32,7.46 C3.32,5.85 4.44,5.09 5.5,5.09 C6.73,5.09 7.28,5.84 7.45,6.52 L8.75,6.11 C8.47,4.96 7.46,3.76 5.5,3.76 C3.6,3.76 1.89,5.2 1.89,7.46 C1.89,9.72 3.54,11.15 5.52,11.15 Z M13.09,11.15 C15.08,11.15 16.1,9.83 16.37,8.74 L15.08,8.35 C14.89,9.01 14.3,9.8 13.09,9.8 C11.95,9.8 10.89,8.97 10.89,7.46 C10.89,5.85 12.01,5.09 13.07,5.09 C14.3,5.09 14.85,5.84 15.02,6.52 L16.32,6.11 C16.04,4.96 15.03,3.76 13.07,3.76 C11.17,3.76 9.46,5.2 9.46,7.46 C9.46,9.72 11.11,11.15 13.09,11.15 Z"/>
    </g>
</symbol><symbol id="plyr-download" viewBox="0 0 18 18">
    <g transform="translate(2 1)">
        <path d="M7,12 C7.3,12 7.5,11.9 7.7,11.7 L13.4,6 L12,4.6 L8,8.6 L8,0 L6,0 L6,8.6 L2,4.6 L0.6,6 L6.3,11.7 C6.5,11.9 6.7,12 7,12 Z"/>
        <rect width="14" height="2" y="14"/>
    </g>
</symbol><symbol id="plyr-enter-fullscreen" viewBox="0 0 18 18">
    <polygon points="10 3 13.6 3 9.6 7 11 8.4 15 4.4 15 8 17 8 17 1 10 1"/>
    <polygon points="7 9.6 3 13.6 3 10 1 10 1 17 8 17 8 15 4.4 15 8.4 11"/>
</symbol><symbol id="plyr-exit-fullscreen" viewBox="0 0 18 18">
    <polygon points="1 12 4.6 12 0.6 16 2 17.4 6 13.4 6 17 8 17 8 10 1 10"/>
    <polygon points="16 0.6 12 4.6 12 1 10 1 10 8 17 8 17 6 13.4 6 17.4 2"/>
</symbol><symbol id="plyr-fast-forward" viewBox="0 0 18 18">
    <polygon points="7.875 7.17142857 0 1 0 17 7.875 10.8285714 7.875 17 18 9 7.875 1"/>
</symbol><symbol id="plyr-logo-vimeo" viewBox="0 0 18 18">
  <path d="M16,3.3 C15.9,4.9 14.8,7 12.7,9.7 C10.5,12.5 8.7,13.9 7.2,13.9 C6.3,13.9 5.5,13 4.8,11.3 C4,8.9 3.4,4 2,4 C1.9,4 1.5,4.3 0.8,4.8 L0,3.8 C0.8,3.1 3.5,0.4 4.7,0.3 C5.9,0.2 6.7,1 7,2.8 C7.3,4.8 7.8,8.9 8.8,8.9 C9.7,8.9 11.3,5.5 11.4,4.9 C11.5,4 11.1,3 9.1,3.8 C9.9,1.2 11.4,-8.8817842e-16 13.6,-8.8817842e-16 C15.3,0.1 16.1,1.2 16,3.3 Z" transform="translate(1 2)"/>
</symbol><symbol id="plyr-logo-youtube" viewBox="0 0 18 18">
  <path d="M15.8,2.8 C15.6,1.5 15,0.6 13.6,0.4 C11.4,0 8,0 8,0 C8,0 4.6,0 2.4,0.4 C1,0.6 0.3,1.5 0.2,2.8 C0,4.1 0,6 0,6 C0,6 0,7.9 0.2,9.2 C0.4,10.5 1,11.4 2.4,11.6 C4.6,12 8,12 8,12 C8,12 11.4,12 13.6,11.6 C15,11.3 15.6,10.5 15.8,9.2 C16,7.9 16,6 16,6 C16,6 16,4.1 15.8,2.8 Z M6,9 L6,3 L11,6 L6,9 Z" transform="translate(1 3)"/>
</symbol><symbol id="plyr-muted" viewBox="0 0 18 18">
    <polygon points="12.4 12.5 14.5 10.4 16.6 12.5 18 11.1 15.9 9 18 6.9 16.6 5.5 14.5 7.6 12.4 5.5 11 6.9 13.1 9 11 11.1"/>
    <path d="M3.78571429,6.00820648 L0.714285714,6.00820648 C0.285714286,6.00820648 0,6.30901277 0,6.76022222 L0,11.2723167 C0,11.7235261 0.285714286,12.0243324 0.714285714,12.0243324 L3.78571429,12.0243324 L7.85714286,15.8819922 C8.35714286,16.1827985 9,15.8819922 9,15.2803796 L9,2.75215925 C9,2.15054666 8.35714286,1.77453879 7.85714286,2.15054666 L3.78571429,6.00820648 Z"/>
</symbol><symbol id="plyr-pause" viewBox="0 0 18 18">
    <path d="M6,1 L3,1 C2.4,1 2,1.4 2,2 L2,16 C2,16.6 2.4,17 3,17 L6,17 C6.6,17 7,16.6 7,16 L7,2 C7,1.4 6.6,1 6,1 L6,1 Z"/>
    <path d="M12,1 C11.4,1 11,1.4 11,2 L11,16 C11,16.6 11.4,17 12,17 L15,17 C15.6,17 16,16.6 16,16 L16,2 C16,1.4 15.6,1 15,1 L12,1 Z"/>
</symbol><symbol id="plyr-pip" viewBox="0 0 18 18">
    <polygon points="13.293 3.293 7.022 9.564 8.436 10.978 14.707 4.707 17 7 17 1 11 1"/>
    <path d="M13,15 L3,15 L3,5 L8,5 L8,3 L2,3 C1.448,3 1,3.448 1,4 L1,16 C1,16.552 1.448,17 2,17 L14,17 C14.552,17 15,16.552 15,16 L15,10 L13,10 L13,15 L13,15 Z"/>
</symbol><symbol id="plyr-play" viewBox="0 0 18 18">
    <path d="M15.5615866,8.10002147 L3.87056367,0.225209313 C3.05219207,-0.33727727 2,0.225209313 2,1.12518784 L2,16.8748122 C2,17.7747907 3.05219207,18.3372773 3.87056367,17.7747907 L15.5615866,9.89997853 C16.1461378,9.44998927 16.1461378,8.55001073 15.5615866,8.10002147 L15.5615866,8.10002147 Z"/>
</symbol><symbol id="plyr-restart" viewBox="0 0 18 18">
    <path d="M9.7,1.2 L10.4,7.6 L12.5,5.5 C14.4,7.4 14.4,10.6 12.5,12.5 C11.6,13.5 10.3,14 9,14 C7.7,14 6.4,13.5 5.5,12.5 C3.6,10.6 3.6,7.4 5.5,5.5 C6.1,4.9 6.9,4.4 7.8,4.2 L7.2,2.3 C6,2.6 4.9,3.2 4,4.1 C1.3,6.8 1.3,11.2 4,14 C5.3,15.3 7.1,16 8.9,16 C10.8,16 12.5,15.3 13.8,14 C16.5,11.3 16.5,6.9 13.8,4.1 L16,1.9 L9.7,1.2 L9.7,1.2 Z"/>
</symbol><symbol id="plyr-rewind" viewBox="0 0 18 18">
    <polygon points="10.125 1 0 9 10.125 17 10.125 10.8285714 18 17 18 1 10.125 7.17142857"/>
</symbol><symbol id="plyr-settings" viewBox="0 0 18 18">
    <path d="M16.135,7.784 C14.832,7.458 14.214,5.966 14.905,4.815 C15.227,4.279 15.13,3.817 14.811,3.499 L14.501,3.189 C14.183,2.871 13.721,2.774 13.185,3.095 C12.033,3.786 10.541,3.168 10.216,1.865 C10.065,1.258 9.669,1 9.219,1 L8.781,1 C8.331,1 7.936,1.258 7.784,1.865 C7.458,3.168 5.966,3.786 4.815,3.095 C4.279,2.773 3.816,2.87 3.498,3.188 L3.188,3.498 C2.87,3.816 2.773,4.279 3.095,4.815 C3.786,5.967 3.168,7.459 1.865,7.784 C1.26,7.935 1,8.33 1,8.781 L1,9.219 C1,9.669 1.258,10.064 1.865,10.216 C3.168,10.542 3.786,12.034 3.095,13.185 C2.773,13.721 2.87,14.183 3.189,14.501 L3.499,14.811 C3.818,15.13 4.281,15.226 4.815,14.905 C5.967,14.214 7.459,14.832 7.784,16.135 C7.935,16.742 8.331,17 8.781,17 L9.219,17 C9.669,17 10.064,16.742 10.216,16.135 C10.542,14.832 12.034,14.214 13.185,14.905 C13.72,15.226 14.182,15.13 14.501,14.811 L14.811,14.501 C15.129,14.183 15.226,13.72 14.905,13.185 C14.214,12.033 14.832,10.541 16.135,10.216 C16.742,10.065 17,9.669 17,9.219 L17,8.781 C17,8.33 16.74,7.935 16.135,7.784 L16.135,7.784 Z M9,12 C7.343,12 6,10.657 6,9 C6,7.343 7.343,6 9,6 C10.657,6 12,7.343 12,9 C12,10.657 10.657,12 9,12 L9,12 Z"/>
</symbol><symbol id="plyr-volume" viewBox="0 0 18 18">
    <path d="M15.5999996,3.3 C15.1999996,2.9 14.5999996,2.9 14.1999996,3.3 C13.7999996,3.7 13.7999996,4.3 14.1999996,4.7 C15.3999996,5.9 15.9999996,7.4 15.9999996,9 C15.9999996,10.6 15.3999996,12.1 14.1999996,13.3 C13.7999996,13.7 13.7999996,14.3 14.1999996,14.7 C14.3999996,14.9 14.6999996,15 14.8999996,15 C15.1999996,15 15.3999996,14.9 15.5999996,14.7 C17.0999996,13.2 17.9999996,11.2 17.9999996,9 C17.9999996,6.8 17.0999996,4.8 15.5999996,3.3 L15.5999996,3.3 Z"/>
    <path d="M11.2819745,5.28197449 C10.9060085,5.65794047 10.9060085,6.22188944 11.2819745,6.59785542 C12.0171538,7.33303477 12.2772954,8.05605449 12.2772954,9.00000021 C12.2772954,9.93588462 11.851678,10.9172014 11.2819745,11.4869049 C10.9060085,11.8628709 10.9060085,12.4268199 11.2819745,12.8027859 C11.4271642,12.9479755 11.9176724,13.0649528 12.2998149,12.9592565 C12.4124479,12.9281035 12.5156669,12.8776063 12.5978555,12.8027859 C13.773371,11.732654 14.1311161,10.1597914 14.1312523,9.00000021 C14.1312723,8.8299555 14.1286311,8.66015647 14.119665,8.4897429 C14.0674781,7.49784946 13.8010171,6.48513613 12.5978554,5.28197449 C12.2218894,4.9060085 11.6579405,4.9060085 11.2819745,5.28197449 Z"/>
    <path d="M3.78571429,6.00820648 L0.714285714,6.00820648 C0.285714286,6.00820648 0,6.30901277 0,6.76022222 L0,11.2723167 C0,11.7235261 0.285714286,12.0243324 0.714285714,12.0243324 L3.78571429,12.0243324 L7.85714286,15.8819922 C8.35714286,16.1827985 9,15.8819922 9,15.2803796 L9,2.75215925 C9,2.15054666 8.35714286,1.77453879 7.85714286,2.15054666 L3.78571429,6.00820648 Z"/>
</symbol></svg>