<?xml version="1.0" encoding="UTF-8"?><!DOCTYPE svg PUBLIC "-//W3C//DTD SVG 1.1//EN" "http://www.w3.org/Graphics/SVG/1.1/DTD/svg11.dtd"><svg xmlns="http://www.w3.org/2000/svg" xmlns:xlink="http://www.w3.org/1999/xlink"><symbol id="plyr-airplay" viewBox="0 0 18 18"><path d="M16 1H2a1 1 0 00-1 1v10a1 1 0 001 1h3v-2H3V3h12v8h-2v2h3a1 1 0 001-1V2a1 1 0 00-1-1z"/><path d="M4 17h10l-5-6z"/></symbol><symbol id="plyr-captions-off" viewBox="0 0 25 25"><path d="M3.5 1.517a1 1 0 00-1.414 1.414l5.532 5.532a3 3 0 00-1.83 2.763v2a3 3 0 005.122 2.12l.001.001a1 1 0 00-1.41-1.418v-.001a1 1 0 01-1.712-.702v-2a1 1 0 011.711-.702h.001c.124.121.27.205.427.25L22.084 22.93a1 1 0 001.415-1.414l-1.532-1.532a3 3 0 001.821-2.76v-10a3 3 0 00-3-3H6.208L3.5 1.517zm4.707 4.707h12.581a1 1 0 011 1v10a1 1 0 01-1 1h-.58l-2.241-2.24c.355-.152.675-.37.943-.64l.001.002a1 1 0 00-1.41-1.42 1 1 0 01-1.712-.702v-2a1 1 0 011.711-.701l.001-.001a1 1 0 001.41-1.42v.002a3 3 0 00-5.122 2.12v.581l-5.582-5.58z" fill="#212121"/><path d="M4.788 18.224a1 1 0 01-1-1v-9a1 1 0 10-2 0v9a3 3 0 003 3h8.777a1 1 0 100-2H4.788z" fill="#212121"/></symbol><symbol id="plyr-captions-on" viewBox="0 0 25 25"><path d="M5.201 11.224a3 3 0 015.122-2.12l.001-.001a1 1 0 01-1.41 1.418v.001a1 1 0 00-1.712.702v2a1 1 0 001.712.702 1 1 0 011.41 1.42v-.001a3 3 0 01-5.122-2.12v-2zm11-3a3 3 0 00-3 3v2a3 3 0 005.122 2.12l.001.001a1 1 0 00-1.41-1.418v-.001a1 1 0 01-1.712-.702v-2a1 1 0 011.712-.702 1 1 0 001.41-1.42v.002a2.99 2.99 0 00-2.123-.88z" fill="#212121"/><path d="M4.201 4.224a3 3 0 00-3 3v10a3 3 0 003 3h16a3 3 0 003-3v-10a3 3 0 00-3-3h-16zm16 2a1 1 0 011 1v10a1 1 0 01-1 1h-16a1 1 0 01-1-1v-10a1 1 0 011-1h16z" fill="#212121"/></symbol><symbol id="plyr-download" viewBox="0 0 18 18"><path d="M9 13c.3 0 .5-.1.7-.3L15.4 7 14 5.6l-4 4V1H8v8.6l-4-4L2.6 7l5.7 5.7c.2.2.4.3.7.3zm-7 2h14v2H2z"/></symbol><symbol id="plyr-enter-fullscreen" viewBox="0 0 25 25"><path d="M6.375 2.224a4 4 0 00-4 4v3a1 1 0 102 0v-3a2 2 0 012-2h3a1 1 0 000-2h-3zm-4 16a4 4 0 004 4h3a1 1 0 100-2h-3a2 2 0 01-2-2v-3a1 1 0 10-2 0v3zm20 0a4 4 0 01-4 4h-3a1 1 0 010-2h3a2 2 0 002-2v-3a1 1 0 012 0v3zm0-12a4 4 0 00-4-4h-3a1 1 0 000 2h3a2 2 0 012 2v3a1 1 0 002 0v-3z" fill="#212121"/></symbol><symbol id="plyr-exit-fullscreen" viewBox="0 0 25 25"><path d="M6.962 10.224a4 4 0 004-4v-3a1 1 0 00-2 0v3a2 2 0 01-2 2h-3a1 1 0 000 2h3zm4 8a4 4 0 00-4-4h-3a1 1 0 100 2h3a2 2 0 012 2v3a1 1 0 102 0v-3zm4 0a4 4 0 014-4h3a1 1 0 010 2h-3a2 2 0 00-2 2v3a1 1 0 01-2 0v-3zm0-12a4 4 0 004 4h3a1 1 0 000-2h-3a2 2 0 01-2-2v-3a1 1 0 00-2 0v3z" fill="#212121"/></symbol><symbol id="plyr-fast-forward" viewBox="0 0 25 25"><path d="M22.846 13c.473-.34.473-1.171 0-1.51l-8.56-6.123c-.48-.343-1.085.077-1.085.754v6.123c0-.292-.119-.584-.355-.753l-8.56-6.124c-.48-.343-1.085.077-1.085.754V18.37c0 .676.604 1.097 1.084.754L12.846 13c.236-.169.355-.462.355-.755v6.125c0 .676.604 1.097 1.084.754L22.846 13z" fill="#212121"/></symbol><symbol id="plyr-logo-vimeo" viewBox="0 0 18 18"><path d="M17 5.3c-.1 1.6-1.2 3.7-3.3 6.4-2.2 2.8-4 4.2-5.5 4.2-.9 0-1.7-.9-2.4-2.6C5 10.9 4.4 6 3 6c-.1 0-.5.3-1.2.8l-.8-1c.8-.7 3.5-3.4 4.7-3.5 1.2-.1 2 .7 2.3 2.5.3 2 .8 6.1 1.8 6.1.9 0 2.5-3.4 2.6-4 .1-.9-.3-1.9-2.3-1.1.8-2.6 2.3-3.8 4.5-3.8 1.7.1 2.5 1.2 2.4 3.3z"/></symbol><symbol id="plyr-logo-youtube" viewBox="0 0 18 18"><path d="M16.8 5.8c-.2-1.3-.8-2.2-2.2-2.4C12.4 3 9 3 9 3s-3.4 0-5.6.4C2 3.6 1.3 4.5 1.2 5.8 1 7.1 1 9 1 9s0 1.9.2 3.2c.2 1.3.8 2.2 2.2 2.4C5.6 15 9 15 9 15s3.4 0 5.6-.4c1.4-.3 2-1.1 2.2-2.4.2-1.3.2-3.2.2-3.2s0-1.9-.2-3.2zM7 12V6l5 3-5 3z"/></symbol><symbol id="plyr-muted" viewBox="0 0 25 25"><path d="M7.895 18.83l-2.419-2.418H3.31a2 2 0 01-2-2v-4.334a2 2 0 012-2h2.166l2.42-2.419c1.26-1.26 3.414-.368 3.414 1.414v10.343c0 1.782-2.155 2.674-3.415 1.415zm-1.59-8.752H3.31v4.334h2.995l3.005 3.004V7.073l-3.005 3.005zM17.026 9.04a1.005 1.005 0 00-1.422 1.421l1.784 1.784-1.784 1.784a1.005 1.005 0 001.422 1.421l1.784-1.784 1.783 1.784a1.005 1.005 0 001.422-1.422l-1.784-1.783 1.784-1.784a1.005 1.005 0 00-1.422-1.422l-1.784 1.784-1.783-1.784z" fill="#212121"/></symbol><symbol id="plyr-pause" viewBox="0 0 25 25"><path d="M5.027 4.245a1 1 0 00-1 1v14a1 1 0 001 1h4a1 1 0 001-1v-14a1 1 0 00-1-1h-4zm10 0a1 1 0 00-1 1v14a1 1 0 001 1h4a1 1 0 001-1v-14a1 1 0 00-1-1h-4z" fill="#212121"/></symbol><symbol id="plyr-pip" viewBox="0 0 18 18"><path d="M13.293 3.293L7.022 9.564l1.414 1.414 6.271-6.271L17 7V1h-6z"/><path d="M13 15H3V5h5V3H2a1 1 0 00-1 1v12a1 1 0 001 1h12a1 1 0 001-1v-6h-2v5z"/></symbol><symbol id="plyr-play" viewBox="0 0 24 25"><path d="M20.503 11.387a.996.996 0 010 1.723l-11.985 7C7.847 20.5 7 20.02 7 19.247V5.25c0-.773.847-1.254 1.518-.862l11.985 6.999z" fill="#212121"/></symbol><symbol id="plyr-restart" viewBox="0 0 25 25"><path d="M6.39 11.816l1.278-1.278a1 1 0 111.414 1.414l-3 3a1 1 0 01-1.414 0l-3-3a1 1 0 111.414-1.414l1.303 1.303a8 8 0 117.99 8.404 1 1 0 110-2 6 6 0 10-5.985-6.43z" fill="#212121"/></symbol><symbol id="plyr-rewind" viewBox="0 0 25 24"><path d="M2.142 11.26c-.473.332-.473 1.148 0 1.479l8.561 6.001c.48.337 1.085-.076 1.085-.739v-6c0 .286.118.572.354.738l8.561 6.001c.48.337 1.085-.076 1.085-.739V6c0-.664-.605-1.076-1.085-.74l-8.56 6.002c-.237.166-.355.453-.355.74V5.998c0-.664-.605-1.076-1.085-.74l-8.56 6.002z" fill="#212121"/></symbol><symbol id="plyr-settings" viewBox="0 0 18 18"><path d="M16.135 7.784a2 2 0 01-1.23-2.969c.322-.536.225-.998-.094-1.316l-.31-.31c-.318-.318-.78-.415-1.316-.094a2 2 0 01-2.969-1.23C10.065 1.258 9.669 1 9.219 1h-.438c-.45 0-.845.258-.997.865a2 2 0 01-2.969 1.23c-.536-.322-.999-.225-1.317.093l-.31.31c-.318.318-.415.781-.093 1.317a2 2 0 01-1.23 2.969C1.26 7.935 1 8.33 1 8.781v.438c0 .45.258.845.865.997a2 2 0 011.23 2.969c-.322.536-.225.998.094 1.316l.31.31c.319.319.782.415 1.316.094a2 2 0 012.969 1.23c.151.607.547.865.997.865h.438c.45 0 .845-.258.997-.865a2 2 0 012.969-1.23c.535.321.997.225 1.316-.094l.31-.31c.318-.318.415-.781.094-1.316a2 2 0 011.23-2.969c.607-.151.865-.547.865-.997v-.438c0-.451-.26-.846-.865-.997zM9 12a3 3 0 110-6 3 3 0 010 6z"/></symbol><symbol id="plyr-transcript" viewBox="0 0 25 24"><path d="M4.549 6a1 1 0 100 2 1 1 0 000-2zm4 0a1 1 0 100 2h12a1 1 0 100-2h-12zm0 5a1 1 0 100 2h12a1 1 0 100-2h-12zm-1 6a1 1 0 011-1h12a1 1 0 110 2h-12a1 1 0 01-1-1zm-4-5a1 1 0 112 0 1 1 0 01-2 0zm1 4a1 1 0 100 2 1 1 0 000-2z" fill="#212121"/></symbol><symbol id="plyr-volume" viewBox="0 0 24 24"><path d="M18.555 3.168a1 1 0 00-1.11 1.664C19.535 6.227 21 8.887 21 12c0 3.114-1.465 5.773-3.555 7.168a1 1 0 001.11 1.664C21.248 19.034 23 15.723 23 12c0-3.723-1.752-7.034-4.445-8.832zM5.167 16.167l2.419 2.419c1.26 1.26 3.414.367 3.414-1.414V6.828c0-1.781-2.154-2.674-3.414-1.414l-2.42 2.42H3a2 2 0 00-2 2v4.333a2 2 0 002 2h2.167zm.828-6.334L9 6.828v10.344l-3.005-3.005H3V9.833h2.995z" fill="#212121"/><path d="M14.168 7.445a1 1 0 011.387-.277C17.052 8.168 18 9.986 18 12s-.948 3.832-2.445 4.832a1 1 0 01-1.11-1.664C15.339 14.571 16 13.404 16 12c0-1.404-.66-2.571-1.555-3.168a1 1 0 01-.277-1.387z" fill="#212121"/></symbol></svg>