<?xml version="1.0" encoding="UTF-8"?><!DOCTYPE svg PUBLIC "-//W3C//DTD SVG 1.1//EN" "http://www.w3.org/Graphics/SVG/1.1/DTD/svg11.dtd"><svg xmlns="http://www.w3.org/2000/svg"><symbol id="icon-bubble" viewBox="0 0 18 18"><path d="M9.016 3C11.764 3 14 5.243 14 8s-2.236 5-4.97 5l-.06-.004-.165-.01-.336-.014-3.666 1.098.63-2.483-.518-.747c-.58-.84-.886-1.822-.886-2.842 0-2.757 2.236-5 4.984-5zm0-2C5.16 1 2.032 4.134 2.032 8c0 1.48.46 2.848 1.24 3.978L2.003 17l6.72-2.015c.1.004.195.015.294.015C12.873 15 16 11.866 16 8s-3.127-7-6.984-7z"/></symbol><symbol id="icon-collapse" viewBox="0 0 18 18"><title>collapse</title><g><g><path d="M14.424 2.165l-2.57 2.568.018-1.845c-.003-.552-.45-1-1.002-1.002-.55-.003-.994.442-.992.992l-.023 4.22c.002.263.107.517.296.706l.025.023c.01.007.016.017.024.025.187.188.44.294.706.295l4.218-.023c.55.002.995-.442.992-.992-.002-.55-.45-1-1-1.002l-1.847.016 2.567-2.568c.387-.387.387-1.013 0-1.4l-.013-.013c-.386-.386-1.013-.386-1.4 0z"/><path d="M6.154 13.266l-.017 1.846c.003.55.45 1 1.002 1 .55.004.994-.44.99-.99l.024-4.22c0-.264-.106-.517-.295-.706l-.026-.024-.023-.024c-.187-.188-.442-.294-.706-.296l-4.22.023c-.55-.002-.994.442-.99.992.002.55.45 1 1 1.002l1.847-.017-2.568 2.57c-.386.385-.386 1.012 0 1.398.4.4 1.026.4 1.413.014l2.57-2.568z"/></g></g></symbol><symbol id="icon-expand" viewBox="0 0 18 18"><title>expand</title><g><g><path d="M6.424 10.165l-2.57 2.568.018-1.845c-.003-.552-.45-1-1.002-1.002-.55-.003-.994.442-.992.992l-.023 4.22c.002.263.107.517.296.706l.025.023c.01.007.016.017.024.025.187.188.44.294.706.295l4.218-.023c.55.002.995-.442.992-.992-.002-.55-.45-1-1-1.002l-1.847.016 2.567-2.568c.387-.387.387-1.013 0-1.4l-.013-.013c-.386-.386-1.013-.386-1.4 0z"/><path d="M14.154 5.266l-.017 1.846c.003.55.45 1 1.002 1 .55.004.994-.44.99-.99l.024-4.22c0-.264-.106-.517-.295-.706l-.026-.024-.023-.024c-.187-.188-.442-.294-.706-.296l-4.22.023c-.55-.002-.994.442-.99.992.002.55.45 1 1 1.002l1.847-.017-2.568 2.57c-.386.385-.386 1.012 0 1.398.4.4 1.026.4 1.413.014l2.57-2.568z"/></g></g></symbol><symbol id="icon-fast-forward" viewBox="0 0 18 18"><path d="M17.57 8.246L7 2c-.552 0-1 .448-1 1v1.954L1 2c-.552 0-1 .448-1 1v12c0 .552.448 1 1 1l5-2.955V15c0 .552.448 1 1 1l10.57-6.246c.266-.158.43-.444.43-.754s-.164-.597-.43-.754zM6 10.722l-4 2.364V4.914l4 2.364v3.444zm2 2.364V4.914L14.915 9 8 13.086z"/></symbol><symbol id="icon-muted" viewBox="0 0 18 18"><title>muted</title><g><g><path d="M9.214 2c-.11 0-.225.032-.334.1L4.832 4.91C4.75 4.97 4.65 5 4.55 5H.995C.446 5 0 5.448 0 6v6c0 .552.446 1 .996 1H4.55c.1 0 .2.03.282.09L8.88 15.9c.11.068.223.1.334.1.392 0 .747-.4.747-.95V2.95c0-.55-.354-.95-.746-.95zM7.97 12.834L5.58 11.177c-.166-.115-.364-.178-.566-.178H2.49c-.274 0-.497-.225-.497-.5v-3c0-.277.223-.5.498-.5h2.526c.202 0 .4-.063.566-.18L7.97 5.165v7.67zM14.934 8.8c-.086-1.75-1.514-2.992-2.507-3.65-.47-.312-1.094-.122-1.325.408l-.038.086c-.188.43-.045.94.336 1.194.706.473 1.586 1.247 1.624 2.065.032.676-.553 1.468-1.663 2.27-.397.288-.528.84-.284 1.275l.042.075c.266.475.866.624 1.3.312 1.74-1.25 2.586-2.606 2.516-4.037z"/><path d="M13.956 9.2c.086 1.747 1.514 2.99 2.507 3.648.47.312 1.094.122 1.325-.408l.038-.086c.188-.43.045-.94-.336-1.194-.706-.473-1.586-1.247-1.624-2.065-.032-.676.553-1.468 1.663-2.27.397-.288.528-.84.284-1.275l-.042-.075c-.266-.475-.866-.624-1.3-.312-1.74 1.25-2.586 2.606-2.516 4.037z"/></g></g></symbol><symbol id="icon-pause" viewBox="0 0 18 18"><title>pause</title><g><g><path d="M2 4v10c0 2 2 2 2 2h2s2 0 2-2V4c0-2-2-2-2-2H4S2 2 2 4zm2 0h2v10H4V4z"/><path d="M10 4v10c0 2 2 2 2 2h2s2 0 2-2V4c0-2-2-2-2-2h-2s-2 0-2 2zm2 0h2v10h-2V4z"/></g></g></symbol><symbol id="icon-play" viewBox="0 0 18 18"><path d="M5 4.914L11.915 9 5 13.086V4.914zM4 2c-.552 0-1 .448-1 1v12c0 .552.448 1 1 1l10.57-6.246c.266-.158.43-.444.43-.754s-.164-.597-.43-.754L4 2z"/></symbol><symbol id="icon-refresh" viewBox="0 0 18 18"><path d="M8.013 14.006H7.19c-2.37-.388-4.186-2.453-4.186-4.934 0-.83.213-1.61.574-2.3l.613.85c.447.62 1.41.447 1.615-.288l1.162-4.18C7.13 2.575 6.692 2 6.09 2.002l-4.174.007c-.74 0-1.17.84-.736 1.443l1.128 1.564C1.49 6.16 1.006 7.558 1.006 9.074c0 3.498 2.566 6.398 5.918 6.916.09.014.18.01.267 0V16h.823c.545 0 .987-.44.987-.986v-.02c0-.545-.442-.987-.987-.987zM16.82 14.55l-1.13-1.563c.82-1.145 1.303-2.544 1.303-4.06 0-3.498-2.566-6.398-5.918-6.917-.09-.014-.18-.01-.267 0V2h-.822c-.545 0-.986.442-.986.987v.02c0 .546.442.988.986.988h.822c2.372.388 4.187 2.453 4.187 4.934 0 .83-.213 1.61-.573 2.3l-.614-.85c-.446-.62-1.41-.447-1.613.288l-1.163 4.18c-.16.58.275 1.154.878 1.153l4.174-.006c.742 0 1.17-.842.736-1.443z"/></symbol><symbol id="icon-rewind" viewBox="0 0 18 21"><title>rewind</title><g><path d="M.43 10.754L11 17c.552 0 1-.448 1-1v-1.954L17 17c.552 0 1-.448 1-1V4c0-.552-.448-1-1-1l-5 2.955V4c0-.552-.448-1-1-1L.43 9.246C.165 9.404 0 9.69 0 10s.164.597.43.754zM12 8.278l4-2.364v8.172l-4-2.364V8.278zm-2-2.364v8.172L3.085 10 10 5.914z"/></g></symbol><symbol id="icon-sound" viewBox="0 0 18 18"><path d="M10.214 2c-.11 0-.225.032-.334.1L5.832 4.91C5.75 4.97 5.65 5 5.55 5H1.995C1.446 5 1 5.448 1 6v6c0 .552.446 1 .996 1H5.55c.1 0 .2.03.282.09L9.88 15.9c.11.068.223.1.334.1.392 0 .747-.4.747-.95V2.95c0-.55-.354-.95-.746-.95zM8.97 12.834L6.58 11.177c-.166-.115-.364-.178-.566-.178H3.49c-.274 0-.497-.225-.497-.5v-3c0-.277.223-.5.498-.5h2.526c.202 0 .4-.063.566-.18L8.97 5.165v7.67zM16.934 8.8c-.086-1.75-1.514-2.992-2.507-3.65-.47-.312-1.094-.122-1.325.408l-.038.086c-.188.43-.045.94.336 1.194.706.473 1.586 1.247 1.624 2.065.032.676-.553 1.468-1.663 2.27-.397.288-.528.84-.284 1.275l.042.075c.266.475.866.624 1.3.312 1.74-1.25 2.586-2.606 2.516-4.037z"/></symbol></svg>