<?xml version="1.0" encoding="utf-8"?>
<!-- Generator: Adobe Illustrator 19.1.0, SVG Export Plug-In . SVG Version: 6.00 Build 0)  -->
<!DOCTYPE svg PUBLIC "-//W3C//DTD SVG 1.1//EN" "http://www.w3.org/Graphics/SVG/1.1/DTD/svg11.dtd">
<svg version="1.1" id="Layer_1" xmlns="http://www.w3.org/2000/svg" xmlns:xlink="http://www.w3.org/1999/xlink" x="0px" y="0px"
	 width="16px" height="16px" viewBox="0 0 16 16" enable-background="new 0 0 16 16" xml:space="preserve">
<path d="M16,4.3c-0.1,1.6-1.2,3.7-3.3,6.4c-2.2,2.8-4,4.2-5.5,4.2c-0.9,0-1.7-0.9-2.4-2.6C4,9.9,3.4,5,2,5
	C1.9,5,1.5,5.3,0.8,5.8L0,4.8c0.8-0.7,3.5-3.4,4.7-3.5C5.9,1.2,6.7,2,7,3.8c0.3,2,0.8,6.1,1.8,6.1c0.9,0,2.5-3.4,2.6-4
	c0.1-0.9-0.3-1.9-2.3-1.1c0.8-2.6,2.3-3.8,4.5-3.8C15.3,1.1,16.1,2.2,16,4.3z"/>
</svg>
