<?xml version="1.0" encoding="utf-8"?>
<!-- Generated by IcoMoon.io -->
<!DOCTYPE svg PUBLIC "-//W3C//DTD SVG 1.1//EN" "http://www.w3.org/Graphics/SVG/1.1/DTD/svg11.dtd">
<svg version="1.1" xmlns="http://www.w3.org/2000/svg" xmlns:xlink="http://www.w3.org/1999/xlink" width="18" height="18" viewBox="0 0 18 18">
<path d="M17 2h-16c-0.552 0-1 0.448-1 1v12c0 0.552 0.448 1 1 1h16c0.552 0 1-0.448 1-1v-12c0-0.552-0.448-1-1-1zM2 4h2v2h-2v-2zM2 8h2v2h-2v-2zM2 14v-2h2v2h-2zM6 14v-10h6v10h-6zM16 14h-2v-2h2v2zM16 10h-2v-2h2v2zM16 6h-2v-2h2v2z"></path>
</svg>
