<?xml version="1.0" encoding="utf-8"?>
<!-- Generated by IcoMoon.io -->
<!DOCTYPE svg PUBLIC "-//W3C//DTD SVG 1.1//EN" "http://www.w3.org/Graphics/SVG/1.1/DTD/svg11.dtd">
<svg version="1.1" xmlns="http://www.w3.org/2000/svg" xmlns:xlink="http://www.w3.org/1999/xlink" width="18" height="18" viewBox="0 0 18 18">
<path d="M10.214 2c-0.111 0-0.225 0.032-0.334 0.101l-4.048 2.81c-0.083 0.058-0.182 0.089-0.283 0.089h-3.553c-0.55 0-0.996 0.448-0.996 1v6c0 0.552 0.446 1 0.996 1h3.553c0.102 0 0.2 0.031 0.283 0.089l4.048 2.81c0.109 0.069 0.223 0.101 0.334 0.101 0.392 0 0.747-0.4 0.747-0.949v-12.101c0-0.55-0.355-0.949-0.747-0.949zM8.969 12.834l-2.387-1.657c-0.166-0.115-0.364-0.178-0.566-0.178h-2.525c-0.275 0-0.498-0.224-0.498-0.5v-3c0-0.276 0.223-0.5 0.498-0.5h2.525c0.202 0 0.4-0.062 0.566-0.178l2.387-1.657v7.669z"></path>
<path d="M16.934 8.799c-0.086-1.748-1.514-2.991-2.507-3.649-0.47-0.312-1.094-0.122-1.325 0.408l-0.038 0.086c-0.188 0.431-0.045 0.939 0.336 1.194 0.706 0.473 1.586 1.247 1.624 2.065 0.032 0.676-0.553 1.468-1.663 2.27-0.398 0.288-0.529 0.839-0.285 1.275l0.042 0.075c0.266 0.475 0.866 0.624 1.3 0.312 1.74-1.251 2.586-2.606 2.516-4.037z"></path>
</svg>
